<svg id="_24x24-Star-Empty" data-name="24x24-Star-Empty" xmlns="http://www.w3.org/2000/svg" width="24" height="24" viewBox="0 0 24 24">
  <rect id="Frame24" width="24" height="24" fill="#fff" opacity="0"/>
  <path id="star-empty" d="M21.917,9.187a1.347,1.347,0,0,0-1.26-.879H15.209L13.258,2.783a1.343,1.343,0,0,0-2.522.017L8.791,8.308H3.343a1.344,1.344,0,0,0-.863,2.374L7.093,14.5,5.157,20.312a1.343,1.343,0,0,0,2.068,1.511L12,18.324l4.774,3.5a1.343,1.343,0,0,0,2.069-1.507l-1.937-5.811,4.623-3.832a1.348,1.348,0,0,0,.388-1.487ZM15.254,13.5a.917.917,0,0,0-.285,1l1.42,4.261a.229.229,0,0,1-.353.258l-3.5-2.565a.917.917,0,0,0-1.085,0L7.966,19.006a.229.229,0,0,1-.353-.257l1.419-4.261a.917.917,0,0,0-.284-1L5.192,10.548a.229.229,0,0,1,.146-.406h4.1a.917.917,0,0,0,.865-.612l1.478-4.189a.229.229,0,0,1,.433,0l1.477,4.188a.917.917,0,0,0,.865.613h4.1a.229.229,0,0,1,.146.406L15.254,13.5Z" transform="translate(0 0.09)" fill="#1D9EC9"/>
<style type="text/css" media="screen">path{vector-effect:non-scaling-stroke}</style></svg>
