<svg id="_24x24-Reload" data-name="24x24-Reload" xmlns="http://www.w3.org/2000/svg" width="24" height="24" viewBox="0 0 24 24">
  <rect id="Frame24" width="24" height="24" fill="#fff" opacity="0"/>
  <path id="reload" d="M17.764,7.222,21.694,8.5a.554.554,0,0,1,.356.3.575.575,0,0,1-.266.819l-1.805.919A8.154,8.154,0,0,1,8.626,19.439.9.9,0,0,1,9.363,17.8,6.354,6.354,0,0,0,18.31,12q0-.3-.028-.6l-1.651.84a.535.535,0,0,1-.367.056l-.1-.025a.588.588,0,0,1-.387-.759l1.277-3.93a.52.52,0,0,1,.7-.359ZM11.96,3.85a8.124,8.124,0,0,1,3.348.718.9.9,0,1,1-.74,1.641A6.354,6.354,0,0,0,5.61,12q0,.274.023.545l1.723-.878a.535.535,0,0,1,.367-.056l.1.025a.589.589,0,0,1,.387.759l-1.277,3.93a.52.52,0,0,1-.7.359l-3.93-1.277a.554.554,0,0,1-.356-.3.575.575,0,0,1,.266-.819l1.729-.881A8.156,8.156,0,0,1,11.96,3.85Z" transform="translate(0.141 0.15)" fill="#1D9EC9"/>
<style type="text/css" media="screen">path{vector-effect:non-scaling-stroke}</style></svg>
