<svg id="_24x24-QRcode" data-name="24x24-QRcode" xmlns="http://www.w3.org/2000/svg" width="24" height="24" viewBox="0 0 24 24">
  <rect id="Frame24" width="24" height="24" fill="#fff" opacity="0"/>
  <path id="QR-code" d="M2.833,8.667A.833.833,0,0,1,2,7.833v-5A.833.833,0,0,1,2.833,2h5a.833.833,0,0,1,.833.833v5a.833.833,0,0,1-.834.833h-5Zm.833-4.792V6.792A.208.208,0,0,0,3.875,7H6.792A.208.208,0,0,0,7,6.792V3.875a.208.208,0,0,0-.208-.208H3.875a.208.208,0,0,0-.208.208ZM7.833,15.333a.833.833,0,0,1,.833.833v5A.833.833,0,0,1,7.833,22h-5A.833.833,0,0,1,2,21.167v-5a.833.833,0,0,1,.833-.833h5ZM7,20.125V17.208A.208.208,0,0,0,6.792,17H3.875a.208.208,0,0,0-.208.208v2.917a.208.208,0,0,0,.208.208H6.792A.208.208,0,0,0,7,20.125ZM21.167,2A.833.833,0,0,1,22,2.833v5a.833.833,0,0,1-.833.833h-5a.833.833,0,0,1-.833-.833v-5A.833.833,0,0,1,16.167,2Zm-.833,4.792V3.875a.208.208,0,0,0-.208-.208H17.208A.208.208,0,0,0,17,3.875V6.792A.208.208,0,0,0,17.208,7h2.917A.208.208,0,0,0,20.333,6.792Zm-10-1.25a.625.625,0,0,1-.625-.625V2.833a.625.625,0,1,1,1.25,0v1.25a.208.208,0,0,0,.208.208.625.625,0,1,1,0,1.25Zm2.5-2.083a.625.625,0,0,1,0-1.25h.833a.625.625,0,0,1,.625.625V8.25a.625.625,0,1,1-1.25,0V3.667a.208.208,0,0,0-.208-.208ZM6.792,10.75a.625.625,0,0,1,.625-.625H9.5a.208.208,0,0,0,.208-.208v-2.5a.625.625,0,0,1,1.25,0V10.75a.625.625,0,0,1-.625.625H7.417a.625.625,0,0,1-.625-.625ZM4.5,10.125a.625.625,0,0,1,.625.625v2.083a.208.208,0,0,0,.208.208h7.5a.208.208,0,0,0,.208-.208V11.167a.625.625,0,0,1,1.25,0v2.5a.625.625,0,0,1-.625.625H2.833a.625.625,0,1,1,0-1.25h.833a.208.208,0,0,0,.208-.208V10.75A.625.625,0,0,1,4.5,10.125Zm8.958,6.042a.625.625,0,0,1-.625.625H11.167a.208.208,0,0,0-.208.208v2.5a.625.625,0,0,1-1.25,0V16.167a.625.625,0,0,1,.625-.625h2.5A.625.625,0,0,1,13.458,16.167Zm7.708,4.375a.625.625,0,0,1,0,1.25H13.25a.625.625,0,0,1-.625-.625v-2.5a.625.625,0,0,1,1.25,0v1.667a.208.208,0,0,0,.208.208ZM15.75,18.875a.625.625,0,0,1-.625-.625v-2.5a.625.625,0,0,1,.625-.625h2.5a.625.625,0,0,1,.625.625v2.5a.625.625,0,0,1-.625.625Zm.625-2.292v.833a.208.208,0,0,0,.208.208h.833a.208.208,0,0,0,.208-.208v-.833a.208.208,0,0,0-.208-.208h-.833A.208.208,0,0,0,16.375,16.583Zm4.375-3.958a.625.625,0,0,1,.625.625v5.417a.625.625,0,0,1-1.25,0V13.25A.625.625,0,0,1,20.75,12.625Zm.625-2.292a.625.625,0,0,1-.625.625H17a.208.208,0,0,0-.208.208v1.667a.625.625,0,0,1-1.25,0v-2.5a.625.625,0,0,1,.625-.625H20.75A.625.625,0,0,1,21.375,10.333Z" fill="#1D9EC9"/>
<style type="text/css" media="screen">path{vector-effect:non-scaling-stroke}</style></svg>
