<svg id="_24x24-Paid" data-name="24x24-Paid" xmlns="http://www.w3.org/2000/svg" width="24" height="24" viewBox="0 0 24 24">
  <rect id="Frame24" width="24" height="24" fill="#fff" opacity="0"/>
  <path id="paid" d="M18.271,5.561H2.229A.229.229,0,0,1,2,5.332,2.292,2.292,0,0,1,4.292,3.04H16.208A2.292,2.292,0,0,1,18.5,5.332a.229.229,0,0,1-.229.229ZM18.042,9a7.805,7.805,0,0,0-7.53,5.788.228.228,0,0,1-.221.17h-6A2.292,2.292,0,0,1,2,12.665v-5.5a.229.229,0,0,1,.229-.229H18.271a.229.229,0,0,1,.229.229v1.6a.228.228,0,0,1-.07.164A.231.231,0,0,1,18.264,9h-.222ZM5.208,11.061a.688.688,0,0,0,0,1.375h2.75a.688.688,0,1,0,0-1.375Zm12.833-.229a5.958,5.958,0,1,1-5.958,5.958,5.958,5.958,0,0,1,5.958-5.958Zm3.087,4.458,0,0a.688.688,0,0,0-1.1-.825l-2.5,3.339a.228.228,0,0,1-.346.025l-1.192-1.192a.688.688,0,0,0-.973.973l1.375,1.375a1.367,1.367,0,0,0,.969.4h.1a1.369,1.369,0,0,0,1.008-.55l2.658-3.551Z" transform="translate(0 -0.04)" fill="#1D9EC9"/>
<style type="text/css" media="screen">path{vector-effect:non-scaling-stroke}</style></svg>
