<svg id="_24x24-Passenger-Outline" data-name="24x24-Passenger-Outline" xmlns="http://www.w3.org/2000/svg" width="24" height="24" viewBox="0 0 24 24">
  <rect id="Frame24" width="24" height="24" fill="#fff" opacity="0"/>
  <path id="passenger-outline" d="M3.681,20.319H20.4a8.462,8.462,0,0,0-.756-3.192c-.42-.84-2.269-1.513-4.622-2.438l-.924-.252-.168-.168a1.508,1.508,0,0,1-.336-.755,4.243,4.243,0,0,1,.084-1.766l.084-.168.168-.168a5.059,5.059,0,0,0,1.345-4.034c0-2.269-1.344-3.782-3.193-3.782a3.4,3.4,0,0,0-3.277,3.7,5.242,5.242,0,0,0,1.345,4.118l.084.168.084.168A3.463,3.463,0,0,1,10.4,13.6a1.271,1.271,0,0,1-.336.672l-.084.168-.924.337c-2.353.84-4.2,1.6-4.706,2.436a7.649,7.649,0,0,0-.672,3.109ZM20.656,22H3.345A1.327,1.327,0,0,1,2,20.656a12.071,12.071,0,0,1,.84-4.2c.756-1.514,2.773-2.269,5.63-3.278l.336-.083v-.673A6.8,6.8,0,0,1,7.126,7.293C7.126,4.268,9.143,2,12,2s4.874,2.268,4.874,5.377a6.6,6.6,0,0,1-1.681,5.042.93.93,0,0,0,0,.673l.336.083c2.857,1.009,4.874,1.765,5.63,3.278v.083A10.04,10.04,0,0,1,22,20.656,1.327,1.327,0,0,1,20.656,22Z" fill="#1D9EC9"/>
<style type="text/css" media="screen">path{vector-effect:non-scaling-stroke}</style></svg>
