<svg id="_24x24-Money" data-name="24x24-Money" xmlns="http://www.w3.org/2000/svg" width="24" height="24" viewBox="0 0 24 24">
  <rect id="Frame24" width="24" height="24" fill="#fff" opacity="0"/>
  <path id="money" d="M21.313,7.318c.343,0,.6.343.687.687v9.442a1.6,1.6,0,0,1-1.545,1.545H5a.632.632,0,0,1-.687-.687A.677.677,0,0,1,5,17.618H20.455a.185.185,0,0,0,.172-.172V8a.677.677,0,0,1,.687-.687ZM18.309,5a.811.811,0,0,1,.858.858V15.3a.811.811,0,0,1-.858.858H2.858A.811.811,0,0,1,2,15.3V5.858A.811.811,0,0,1,2.858,5ZM4.575,8.434a.811.811,0,0,0,.858-.858.811.811,0,0,0-.858-.858.811.811,0,0,0-.858.858A.811.811,0,0,0,4.575,8.434Zm6.009,4.721a2.575,2.575,0,1,0-2.575-2.575,2.529,2.529,0,0,0,2.575,2.575Zm6.009,1.288a.858.858,0,1,0-.858-.858A.811.811,0,0,0,16.592,14.442Z" fill="#1D9EC9"/>
<style type="text/css" media="screen">path{vector-effect:non-scaling-stroke}</style></svg>
