<svg id="_24x24-User" data-name="24x24-User" xmlns="http://www.w3.org/2000/svg" width="24" height="24" viewBox="0 0 24 24">
  <rect id="Frame24" width="24" height="24" fill="#fff" opacity="0"/>
  <path id="account-circle" d="M13.694,2.132A10.091,10.091,0,0,0,2.132,13.694a10.069,10.069,0,0,0,8.173,8.173A10.091,10.091,0,0,0,21.868,10.306a10.191,10.191,0,0,0-8.173-8.173ZM12.2,18.977h-.3a6.828,6.828,0,0,1-5.781-3.09c1-.5,2.093-.9,3.09-1.3l.5-.2a.673.673,0,0,0,.4-.6,1.7,1.7,0,0,0-.2-1.4c-.7-.7-1.3-1.595-1.3-3.887A3.382,3.382,0,0,1,11.6,5.023h.5a3.217,3.217,0,0,1,3.289,3.09v.4a5.14,5.14,0,0,1-1.3,3.887,1.7,1.7,0,0,0-.2,1.4.819.819,0,0,0,.4.6l.5.2a28.694,28.694,0,0,1,3.09,1.3,7.3,7.3,0,0,1-5.681,3.09Z" fill="#5a7087"/>
<style type="text/css" media="screen">path{vector-effect:non-scaling-stroke}</style></svg>
