<svg id="_24x24-Unlock" data-name="24x24-Unlock" xmlns="http://www.w3.org/2000/svg" width="24" height="24" viewBox="0 0 24 24">
  <rect id="Frame24" width="24" height="24" fill="#fff" opacity="0"/>
  <path id="unlock" d="M17.684,10.366,17.7,7.29a5.693,5.693,0,0,0-11.372,0A.992.992,0,0,0,7.371,8.33,1.022,1.022,0,0,0,8.426,7.29a3.589,3.589,0,0,1,7.153,0V9.471a.422.422,0,0,1-.4.419H8.1a4.282,4.282,0,0,0-4.1,4v4.2a4.206,4.206,0,0,0,4.1,4l7.8.012A4.231,4.231,0,0,0,20,18.09v-4.2a4.235,4.235,0,0,0-2.316-3.524Zm-4,5.379A1.7,1.7,0,0,1,12,17.43a1.685,1.685,0,0,1,0-3.37,1.7,1.7,0,0,1,1.684,1.685Z" transform="translate(0 0.11)" fill="#5a7087"/>
<style type="text/css" media="screen">path{vector-effect:non-scaling-stroke}</style></svg>
