<svg id="_24x24-Alert-Circle" data-name="24x24-Alert-Circle" xmlns="http://www.w3.org/2000/svg" width="24" height="24" viewBox="0 0 24 24">
  <rect id="Frame24" width="24" height="24" fill="#fff" opacity="0"/>
  <path id="alert-circle" d="M12,2h.2A9.817,9.817,0,0,1,22,11.8,10.137,10.137,0,0,1,12,22h-.2A9.816,9.816,0,0,1,2,12.2,10.129,10.129,0,0,1,4.9,5,9.993,9.993,0,0,1,12,2Zm-.8,5.58v5a.736.736,0,0,0,.8.8.789.789,0,0,0,.8-.8v-5a.8.8,0,1,0-1.6,0Zm.8,9.65a1.3,1.3,0,1,0-1.3-1.3A1.3,1.3,0,0,0,12,17.23Z" transform="translate(0 0)" fill="#5a7087"/>
<style type="text/css" media="screen">path{vector-effect:non-scaling-stroke}</style></svg>
