<svg id="_24x24-Grid" data-name="24x24-Grid" xmlns="http://www.w3.org/2000/svg" width="24" height="24" viewBox="0 0 24 24">
  <rect id="Frame24" width="24" height="24" fill="#fff" opacity="0"/>
  <path id="grid" d="M6.545,7.455H2.909A.859.859,0,0,1,2,6.545V2.909A.859.859,0,0,1,2.909,2H6.545a.859.859,0,0,1,.909.909V6.545a.859.859,0,0,1-.909.909Zm7.273,0H10.182a.859.859,0,0,1-.909-.909V2.909A.859.859,0,0,1,10.182,2h3.636a.859.859,0,0,1,.909.909V6.545a.859.859,0,0,1-.909.909Zm7.273,0H17.454a.859.859,0,0,1-.909-.909V2.909A.859.859,0,0,1,17.454,2h3.636A.859.859,0,0,1,22,2.909V6.545a.859.859,0,0,1-.909.909ZM6.545,14.727H2.909A.859.859,0,0,1,2,13.818V10.182a.859.859,0,0,1,.909-.909H6.545a.859.859,0,0,1,.909.909v3.636a.859.859,0,0,1-.909.909Zm7.273,0H10.182a.859.859,0,0,1-.909-.909V10.182a.859.859,0,0,1,.909-.909h3.636a.859.859,0,0,1,.909.909v3.636a.859.859,0,0,1-.909.909Zm7.273,0H17.454a.859.859,0,0,1-.909-.909V10.182a.859.859,0,0,1,.909-.909h3.636a.859.859,0,0,1,.909.909v3.636a.859.859,0,0,1-.909.909ZM6.545,22H2.909A.859.859,0,0,1,2,21.091V17.455a.859.859,0,0,1,.909-.909H6.545a.859.859,0,0,1,.909.909v3.636A.859.859,0,0,1,6.545,22Zm7.273,0H10.182a.859.859,0,0,1-.909-.909V17.455a.859.859,0,0,1,.909-.909h3.636a.859.859,0,0,1,.909.909v3.636A.859.859,0,0,1,13.818,22Zm7.273,0H17.454a.859.859,0,0,1-.909-.909V17.455a.859.859,0,0,1,.909-.909h3.636a.859.859,0,0,1,.909.909v3.636a.859.859,0,0,1-.909.909Z" transform="translate(0 0)" fill="#5a7087"/>
<style type="text/css" media="screen">path{vector-effect:non-scaling-stroke}</style></svg>
