<svg id="_24x24-ArrowUp" data-name="24x24-ArrowUp" xmlns="http://www.w3.org/2000/svg" width="24" height="24" viewBox="0 0 24 24">
  <rect id="Frame24" width="24" height="24" fill="#fff" opacity="0"/>
  <path id="arrow-up" d="M11.893,18.195l.113.007a.9.9,0,0,0,.893-.787l.007-.113V8.909l2.419,2.41a.9.9,0,0,0,1.09.06l.1-.075a.9.9,0,0,0,.146-1.174l-.076-.1L12.716,6.1a.9.9,0,0,0-1.255-.087l-4.048,4.02a.9.9,0,0,0,1.252,1.291L11.1,8.955V17.3a.9.9,0,0,0,.787.893Z" transform="translate(0.021 0)" fill="#5a7087"/>
<style type="text/css" media="screen">path{vector-effect:non-scaling-stroke}</style></svg>
