<svg id="_24x24-OnlineChecking" data-name="24x24-OnlineChecking" xmlns="http://www.w3.org/2000/svg" width="24" height="24" viewBox="0 0 24 24">
  <rect id="Frame24" width="24" height="24" fill="#fff" opacity="0"/>
  <path id="online-checkin" d="M16.163,2a2.5,2.5,0,0,1,2.5,2.5v15a2.5,2.5,0,0,1-2.5,2.5H7.83a2.5,2.5,0,0,1-2.5-2.5V4.5A2.5,2.5,0,0,1,7.83,2ZM17,17.833V4.917A.417.417,0,0,0,16.58,4.5H7.413A.417.417,0,0,0,7,4.917V17.833a.417.417,0,0,0,.417.417H16.58A.417.417,0,0,0,17,17.833ZM12,7.417a3.75,3.75,0,1,1-3.75,3.75A3.754,3.754,0,0,1,12,7.417Zm1.985,3.156h0a.625.625,0,1,0-1-.75l-1.47,1.959-.667-.667A.625.625,0,1,0,9.964,12l.833.833a1.056,1.056,0,0,0,1.57-.109l1.614-2.152Z" transform="translate(0.02 0)" fill="#5a7087"/>
<style type="text/css" media="screen">path{vector-effect:non-scaling-stroke}</style></svg>
