<svg id="_24x24-File-Excel" data-name="24x24-File-Excel" xmlns="http://www.w3.org/2000/svg" width="24" height="24" viewBox="0 0 24 24">
  <rect id="Frame24" width="24" height="24" fill="#fff" opacity="0"/>
  <g id="Group_12551" data-name="Group 12551" transform="translate(-953.132 -533.625)">
    <path id="Path_8751" data-name="Path 8751" d="M973.214,540.379l-4.511-4.512a.839.839,0,0,0-.589-.242h-9.656a1.667,1.667,0,0,0-1.666,1.667v16.666a1.666,1.666,0,0,0,1.666,1.667h13.334a1.666,1.666,0,0,0,1.666-1.667v-12.99A.829.829,0,0,0,973.214,540.379Zm-1.422,13.163a.417.417,0,0,1-.417.417h-12.5a.417.417,0,0,1-.417-.416V537.708a.417.417,0,0,1,.417-.417h8.542a.208.208,0,0,1,.208.208v2.293a1.666,1.666,0,0,0,1.667,1.666h2.291a.209.209,0,0,1,.209.208Z" fill="#ffffff"/>
    <path id="Path_8752" data-name="Path 8752" d="M965.905,547.045a.462.462,0,0,1-.048-.128.179.179,0,0,1,.04-.12l1.616-2.448a.155.155,0,0,0,.044-.132c-.008-.045-.049-.068-.124-.068h-.976a.287.287,0,0,0-.148.032.274.274,0,0,0-.092.1l-.992,1.624c-.027.042-.055.064-.084.064s-.057-.022-.084-.064l-.992-1.624a.284.284,0,0,0-.092-.1.3.3,0,0,0-.156-.032h-1.168c-.069,0-.111.026-.124.076a.158.158,0,0,0,.028.14l1.68,2.584a.326.326,0,0,1,.052.132.205.205,0,0,1-.044.124l-1.68,2.568c-.08.123-.108.206-.084.248s.079.064.164.064h.888a.427.427,0,0,0,.164-.028.192.192,0,0,0,.1-.092l1.12-1.816c.043-.069.077-.1.1-.1s.061.036.1.1l1.128,1.816a.273.273,0,0,0,.256.12h1.112a.179.179,0,0,0,.168-.068c.027-.045,0-.126-.08-.244Z" fill="#ffffff"/>
  </g>
<style type="text/css" media="screen">path{vector-effect:non-scaling-stroke}</style></svg>
