<svg id="_24x24-TransferOut" data-name="24x24-TransferOut" xmlns="http://www.w3.org/2000/svg" width="24" height="24" viewBox="0 0 24 24">
  <rect id="Frame24" width="24" height="24" fill="#fff" opacity="0"/>
  <path id="money-transfer-out" d="M21.13,10.471a.822.822,0,0,1,.87.87v9.565a.822.822,0,0,1-.87.869H2.87A.822.822,0,0,1,2,20.906V11.34a.822.822,0,0,1,.87-.87H21.13ZM4.609,13.949a.87.87,0,1,0,0-1.739.87.87,0,1,0,0,1.739ZM12,18.732a2.609,2.609,0,1,0-2.609-2.609A2.562,2.562,0,0,0,12,18.732Zm7.391,1.3a.87.87,0,1,0-.87-.87A.822.822,0,0,0,19.391,20.036ZM12,9.775a1.078,1.078,0,0,1-1.13-1.043v-2a.187.187,0,0,0-.174-.174h-1.3A.79.79,0,0,1,8.783,6.3a.841.841,0,0,1,0-1.217l2.609-2.609a.84.84,0,0,1,1.217,0L15.217,5.08a.789.789,0,0,1,.261.609.822.822,0,0,1-.87.87H13.217a.187.187,0,0,0-.174.174v2A1.057,1.057,0,0,1,12,9.775Z" transform="translate(0 -0.21)" fill="#ffffff"/>
<style type="text/css" media="screen">path{vector-effect:non-scaling-stroke}</style></svg>
