<?xml version="1.0" standalone="no"?>
<!DOCTYPE svg PUBLIC "-//W3C//DTD SVG 20010904//EN"
 "http://www.w3.org/TR/2001/REC-SVG-20010904/DTD/svg10.dtd">
<svg version="1.0" xmlns="http://www.w3.org/2000/svg"
 width="365.000000pt" height="315.000000pt" viewBox="0 0 365.000000 315.000000"
 preserveAspectRatio="xMidYMid meet">

<g transform="translate(0.000000,315.000000) scale(0.100000,-0.100000)"
fill="#000000" stroke="none">
<path d="M1084 2781 c-49 -8 -122 -50 -178 -101 -23 -21 -63 -58 -89 -82 -60
-56 -116 -132 -166 -228 -65 -125 -79 -150 -91 -165 -6 -8 -21 -47 -33 -87
-17 -61 -21 -108 -24 -279 -4 -243 5 -302 67 -434 23 -48 42 -95 42 -104 1 -9
-6 -45 -15 -81 -8 -36 -21 -144 -27 -240 -7 -102 -17 -183 -24 -195 -20 -31
-66 -187 -66 -221 0 -17 -7 -53 -15 -80 -8 -27 -15 -73 -15 -101 0 -49 2 -53
23 -53 13 0 32 9 42 20 10 11 22 20 26 20 4 0 25 18 46 41 73 79 109 114 143
139 19 14 38 31 44 38 33 39 39 43 50 32 24 -24 39 -131 43 -313 3 -149 7
-187 18 -187 11 0 14 32 14 160 2 159 -6 216 -44 341 -23 73 14 156 95 213 96
68 175 221 142 273 -13 20 -56 31 -97 24 l-40 -7 3 -44 c3 -62 8 -70 36 -70
33 0 43 -33 21 -66 -9 -14 -51 -60 -92 -101 -63 -62 -78 -72 -89 -61 -19 19
-103 222 -124 299 -10 37 -26 88 -34 113 -23 66 -20 108 10 161 15 28 23 53
19 63 -5 13 -11 9 -26 -20 -35 -67 -46 -61 -100 52 -41 85 -51 176 -46 417 4
216 15 271 74 365 22 35 54 92 71 128 18 36 43 80 55 99 31 48 193 207 246
242 56 36 141 61 194 57 l42 -3 -1 -73 c-2 -83 -15 -115 -92 -223 -112 -159
-140 -195 -182 -241 -40 -43 -54 -52 -120 -69 -41 -11 -80 -25 -87 -31 -8 -6
-13 -33 -13 -65 0 -58 23 -114 60 -148 13 -11 40 -48 62 -82 25 -40 54 -70 79
-85 21 -12 39 -25 39 -28 0 -19 62 -30 167 -30 131 0 122 -4 250 107 76 66
111 75 148 39 35 -35 29 -55 -26 -91 -77 -49 -89 -75 -89 -188 0 -53 4 -99 10
-102 6 -3 10 -14 10 -23 0 -10 9 -35 20 -57 11 -22 20 -44 20 -50 0 -5 11 -31
25 -57 14 -26 25 -53 25 -59 0 -7 8 -22 19 -33 10 -12 29 -41 42 -66 14 -25
42 -72 64 -105 22 -33 47 -78 54 -100 8 -21 27 -53 42 -70 16 -16 34 -46 40
-65 6 -19 17 -46 24 -60 23 -45 53 -115 59 -135 3 -12 8 -135 10 -274 3 -152
8 -257 14 -263 6 -6 18 -8 28 -4 14 5 15 15 10 54 -13 97 -18 350 -8 437 17
142 71 324 137 457 50 102 64 122 109 156 62 47 135 85 196 103 25 7 50 16 55
20 28 21 251 69 318 69 21 0 68 -9 105 -21 37 -11 89 -27 116 -35 75 -23 155
-79 172 -120 25 -59 10 -70 -98 -78 -51 -4 -131 -13 -178 -21 -47 -8 -159 -19
-250 -25 -163 -11 -195 -19 -172 -42 9 -9 41 -9 139 0 71 7 151 12 180 12 l51
0 46 -143 c25 -78 52 -180 60 -227 9 -47 20 -110 25 -140 6 -30 15 -102 21
-160 6 -58 16 -148 23 -200 12 -94 12 -95 41 -98 20 -3 26 0 21 9 -9 13 -30
155 -45 304 -26 245 -51 375 -105 537 -19 59 -35 111 -35 116 0 5 48 14 108
21 59 7 123 14 142 16 36 5 80 46 80 75 0 36 -22 88 -49 116 -57 59 -215 121
-352 140 -84 11 -283 -18 -349 -51 -14 -7 -41 -16 -60 -20 -19 -4 -39 -11 -45
-15 -5 -4 -21 -11 -35 -15 -75 -23 -200 -122 -230 -182 -8 -15 -21 -39 -29
-52 -33 -53 -68 -148 -120 -328 -12 -40 -25 -73 -30 -73 -8 0 -59 98 -80 156
-7 17 -26 46 -43 65 -17 18 -35 50 -40 69 -5 19 -12 44 -14 55 -4 16 4 25 38
43 195 101 250 152 245 225 -4 43 -20 63 -59 72 -24 6 -28 4 -28 -13 0 -11 -7
-25 -15 -32 -20 -17 -19 -30 4 -30 10 0 24 -6 30 -13 8 -11 6 -18 -10 -33 -12
-10 -24 -18 -28 -17 -3 1 -5 -11 -3 -28 2 -26 -3 -32 -50 -55 -29 -14 -70 -36
-92 -48 -47 -29 -69 -24 -98 23 -117 189 -150 258 -184 381 -10 35 -14 85 -12
137 3 92 18 116 89 148 36 17 39 21 39 59 0 30 -7 48 -24 67 -22 24 -30 26
-77 21 -39 -4 -60 -12 -79 -31 -134 -130 -136 -131 -268 -131 -112 0 -114 0
-160 33 -70 48 -71 49 -117 127 -11 18 -34 50 -52 70 -64 73 -67 141 -7 166
18 8 44 14 56 14 35 0 89 41 139 106 24 32 57 72 72 88 42 46 102 135 147 220
41 78 60 174 46 230 -6 24 -10 26 -64 25 -31 -1 -75 -5 -98 -8z m-434 -1600
c5 -11 10 -29 10 -41 0 -12 6 -36 14 -53 8 -18 33 -79 56 -137 22 -58 45 -114
50 -125 24 -55 37 -124 26 -143 -35 -59 -69 -103 -93 -119 -15 -10 -64 -54
-108 -99 -44 -44 -90 -83 -102 -86 -20 -5 -23 -2 -23 27 0 19 5 46 10 61 6 15
15 60 20 100 9 71 40 181 61 218 12 21 16 48 29 226 14 190 23 220 50 171z
m398 -93 c3 -14 -4 -18 -31 -18 -40 0 -51 8 -35 27 16 19 62 12 66 -9z"/>
<path d="M2960 1165 c0 -8 7 -15 15 -15 8 0 15 7 15 15 0 8 -7 15 -15 15 -8 0
-15 -7 -15 -15z"/>
<path d="M2677 1144 c-14 -15 -6 -34 14 -34 14 0 19 5 17 17 -3 18 -20 27 -31
17z"/>
<path d="M2024 609 c-3 -6 0 -17 8 -25 13 -13 195 -93 263 -115 59 -20 140
-64 143 -79 1 -9 -10 -20 -28 -27 -34 -13 -45 -32 -36 -68 4 -16 13 -25 27
-25 11 0 22 -6 25 -14 4 -11 21 -14 66 -12 73 2 97 26 98 95 0 53 18 70 127
127 84 44 112 69 96 85 -15 15 -87 -20 -204 -97 -44 -30 -116 -32 -168 -5 -49
25 -218 101 -226 101 -8 0 -92 36 -128 55 -34 18 -53 19 -63 4z"/>
</g>
</svg>
