<svg id="_24x24-ArrowDown" data-name="24x24-ArrowDown" xmlns="http://www.w3.org/2000/svg" width="24" height="24" viewBox="0 0 24 24">
  <rect id="Frame24" width="24" height="24" fill="#fff" opacity="0"/>
  <path id="arrow-down" d="M11.893,5.807l.113-.007a.9.9,0,0,1,.893.787l.007.113v8.393l2.419-2.41a.9.9,0,0,1,1.09-.06l.1.075a.9.9,0,0,1,.146,1.174l-.076.1L12.716,17.9a.9.9,0,0,1-1.255.087L7.412,13.97a.9.9,0,0,1,1.252-1.291L11.1,15.047V6.7a.9.9,0,0,1,.787-.893l.113-.007-.113.007Z" transform="translate(0.021)" fill="#0071A9"/>
<style type="text/css" media="screen">path{vector-effect:non-scaling-stroke}</style></svg>
