<svg id="_24x24-Picture" data-name="24x24-Picture" xmlns="http://www.w3.org/2000/svg" width="24" height="24" viewBox="0 0 24 24">
  <rect id="Frame24" width="24" height="24" fill="#fff" opacity="0"/>
  <path id="Pictutre" d="M18.1,2H3.9A1.9,1.9,0,0,0,2,3.9V18.1A1.9,1.9,0,0,0,3.9,20H18.1A1.9,1.9,0,0,0,20,18.1V3.9A1.9,1.9,0,0,0,18.1,2ZM7.65,5.315a1.895,1.895,0,1,1-1.9,1.9A1.895,1.895,0,0,1,7.65,5.315Zm8.7,11.294a.469.469,0,0,1-.176.034H5.751a.474.474,0,0,1-.407-.717L7.7,12a1.1,1.1,0,0,1,1.863-.144L10.6,13.1a.235.235,0,0,0,.332.031A.242.242,0,0,0,11,13.051L12.516,9.73a.827.827,0,0,1,1.61.036v0l2.49,6.224A.474.474,0,0,1,16.351,16.609Z" transform="translate(1 1)" fill="#0071A9"/>
<style type="text/css" media="screen">path{vector-effect:non-scaling-stroke}</style></svg>
