<svg id="_24x24-Printer" data-name="24x24-Printer" xmlns="http://www.w3.org/2000/svg" width="24" height="24" viewBox="0 0 24 24">
  <rect id="Frame24" width="24" height="24" fill="#fff" opacity="0"/>
  <g id="Free-Pack_print-text" data-name="Free-Pack / print-text" transform="translate(-334 -356)">
    <g id="Group_68" transform="translate(336 358)">
      <g id="Bold_68">
        <path id="Shape_173" d="M341.583,363a.834.834,0,0,0,.833-.833v-2.292a.208.208,0,0,1,.208-.208h7.155l1.8,1.8v.7a.833.833,0,0,0,1.667,0v-1.042a.831.831,0,0,0-.244-.589l-2.048-2.046a1.676,1.676,0,0,0-1.178-.49h-7.363a1.666,1.666,0,0,0-1.667,1.667v2.5A.834.834,0,0,0,341.583,363Z" transform="translate(-336.792 -358)" fill="#0071A9"/>
        <path id="Shape_174" d="M353.917,365H338.083A2.083,2.083,0,0,0,336,367.083v3.75a2.083,2.083,0,0,0,2.083,2.083h2.083v5.208a1.041,1.041,0,0,0,1.042,1.042h10a1.043,1.043,0,0,0,1.042-1.042v-5.208h1.667A2.083,2.083,0,0,0,356,370.833v-3.75A2.083,2.083,0,0,0,353.917,365Zm-15,3.75a.833.833,0,1,1,.833-.833A.834.834,0,0,1,338.917,368.75Zm11.25,8.75a.417.417,0,0,0,.417-.417v-7.535a.417.417,0,0,0-.417-.417H342.25a.417.417,0,0,0-.417.417v7.535a.417.417,0,0,0,.417.417Z" transform="translate(-336 -359.167)" fill="#0071A9" fill-rule="evenodd"/>
        <path id="Shape_175" d="M349.958,372.75h-4.583a.625.625,0,0,0,0,1.25h4.583a.625.625,0,0,0,0-1.25Z" transform="translate(-337.458 -360.458)" fill="#0071A9"/>
        <path id="Shape_176" d="M348.5,376.25h-3.125a.625.625,0,0,0,0,1.25H348.5a.625.625,0,0,0,0-1.25Z" transform="translate(-337.458 -361.042)" fill="#0071A9"/>
      </g>
    </g>
  </g>
<style type="text/css" media="screen">path{vector-effect:non-scaling-stroke}</style></svg>
