<svg id="_24x24-BillingDetails" data-name="24x24-BillingDetails" xmlns="http://www.w3.org/2000/svg" width="24" height="24" viewBox="0 0 24 24">
  <rect id="Frame24" width="24" height="24" fill="#fff" opacity="0"/>
  <path id="billing-details" d="M19.547,2.21,16.1,4.261a.848.848,0,0,1-1.026-.093l-2.7-1.958a.851.851,0,0,0-1.119,0L8.638,4.168a1,1,0,0,1-1.026.093L4.256,2.21c-.373-.187-.746,0-.746.373V21.417c0,.373.373.559.746.373l3.45-2.051a.848.848,0,0,1,1.026.093l2.7,1.958a.851.851,0,0,0,1.119,0l2.7-1.958a1.021,1.021,0,0,1,1.026-.093l3.45,2.051a.488.488,0,0,0,.746-.373V2.583A.681.681,0,0,0,19.547,2.21ZM7.24,7.338h3.73a.881.881,0,0,1,.932.932.881.881,0,0,1-.932.932H7.24a.881.881,0,0,1-.932-.932.881.881,0,0,1,.932-.932Zm0,3.73H9.1a.932.932,0,0,1,0,1.865H7.24a.932.932,0,0,1,0-1.865Zm5.594,5.594H7.24a.932.932,0,0,1,0-1.865h5.594a.932.932,0,1,1,0,1.865Zm3.73,0h-.932a.932.932,0,1,1,0-1.865h.932a.932.932,0,1,1,0,1.865Zm0-3.73h-.932a.932.932,0,1,1,0-1.865h.932a.932.932,0,0,1,0,1.865Zm0-3.73h-.932A.881.881,0,0,1,14.7,8.27a.881.881,0,0,1,.932-.932h.932a.881.881,0,0,1,.932.932A.881.881,0,0,1,16.564,9.2Z" transform="translate(0.49 0)" fill="#0071A9"/>
<style type="text/css" media="screen">path{vector-effect:non-scaling-stroke}</style></svg>
