<svg id="_24x24-Eye" data-name="24x24-Eye" xmlns="http://www.w3.org/2000/svg" width="24" height="24" viewBox="0 0 24 24">
  <rect id="Frame24" width="24" height="24" fill="#0071A9" opacity="0"/>
  <path id="eye" d="M21.244,10.051a2.88,2.88,0,0,1,0,3.89c-1.006,1.108-4.638,4.723-9.139,4.723h-.213c-4.5,0-8.133-3.615-9.137-4.723a2.881,2.881,0,0,1,0-3.891l.125-.137C5.23,7.388,8.456,5.358,12,5.33c.167,0,.324,0,.487.01,3.342.157,6.566,2.3,8.757,4.711Zm-1.232,2.768a1.23,1.23,0,0,0,0-1.649,15.076,15.076,0,0,0-2.058-1.881,12.708,12.708,0,0,0-2.833-1.647A7.839,7.839,0,0,0,12,7c-3.057-.071-6.04,2-8.013,4.176a1.23,1.23,0,0,0,0,1.648q.135.149.274.294A11.4,11.4,0,0,0,12,17a6.931,6.931,0,0,0,.81-.038c2.768-.261,5.394-2.15,7.2-4.14ZM12,8.663A3.333,3.333,0,1,1,8.667,12a2.987,2.987,0,0,1,.083-.678.208.208,0,0,1,.333-.114A1.662,1.662,0,0,0,11.521,9a.208.208,0,0,1,.153-.321A3.25,3.25,0,0,1,12,8.663Z" transform="translate(-0.001)" fill="#0071A9"/>
<style type="text/css" media="screen">path{vector-effect:non-scaling-stroke}</style></svg>
