<svg id="_24x24-Attachment" data-name="24x24-Attachment" xmlns="http://www.w3.org/2000/svg" width="24" height="24" viewBox="0 0 24 24">
  <rect id="Frame24" width="24" height="24" fill="#fff" opacity="0"/>
  <path id="attachment" d="M20.235,4.822a5.833,5.833,0,0,0-8.235,0L3.26,13.477a4.362,4.362,0,0,0,0,6.134,4.26,4.26,0,0,0,6.05,0l7.059-7.059a2.868,2.868,0,0,0,.168-3.95,2.789,2.789,0,0,0-3.95-.168L12.42,8.6l-4.37,4.37a.832.832,0,0,0,1.177,1.177L13.6,9.78a1.07,1.07,0,1,1,1.513,1.513L8.05,18.351a2.615,2.615,0,1,1-3.7-3.7L13.176,6a4.159,4.159,0,0,1,5.882,5.882L12.5,18.435a.832.832,0,0,0,1.177,1.177l6.555-6.555a5.686,5.686,0,0,0,0-8.235Z" transform="translate(0 -0.02)" fill="#21262c"/>
<style type="text/css" media="screen">path{vector-effect:non-scaling-stroke}</style></svg>
