<svg id="_24x24-Refuse" data-name="24x24-Refuse" xmlns="http://www.w3.org/2000/svg" width="24" height="24" viewBox="0 0 24 24">
  <rect id="Frame24" width="24" height="24" fill="#fff" opacity="0"/>
  <path id="refuse" d="M21.5,7.5l-4.9-5A2.078,2.078,0,0,0,15.4,2H8.6a2.078,2.078,0,0,0-1.2.5l-4.9,5A1.656,1.656,0,0,0,2,8.7v6.8a2.078,2.078,0,0,0,.5,1.2l4.8,4.8a2.106,2.106,0,0,0,1.3.5h6.8a2.078,2.078,0,0,0,1.2-.5l4.9-4.8a1.845,1.845,0,0,0,.5-1.2V8.7A1.656,1.656,0,0,0,21.5,7.5Zm-4.9,8.1a2.946,2.946,0,0,1-3,3H11a2.676,2.676,0,0,1-2.3-1.2c0-.1-.1-.1-.1-.2L7.5,15.6A12.638,12.638,0,0,1,6.2,13c-.2-.2-.1-.7.2-1a.972.972,0,0,1,.9-.1l1,1.2.1.1a.215.215,0,0,0,.2-.2V7.6a.789.789,0,0,1,.8-.8.713.713,0,0,1,.7.8v3.9a.3.3,0,0,0,.6,0V6.2a.789.789,0,0,1,.8-.8.736.736,0,0,1,.8.8v5.2a.3.3,0,1,0,.6,0v-4a.773.773,0,0,1,.7-.8.789.789,0,0,1,.8.8v4.1a.319.319,0,0,0,.3.3.451.451,0,0,0,.3-.3v-3a.789.789,0,0,1,.8-.8c.5,0,.7.3.7.8l.1,7.1Z" fill="#21262c"/>
<style type="text/css" media="screen">path{vector-effect:non-scaling-stroke}</style></svg>
