<svg id="_24x24-Lock" data-name="24x24-Lock" xmlns="http://www.w3.org/2000/svg" width="24" height="24" viewBox="0 0 24 24">
  <rect id="Frame24" width="24" height="24" fill="#fff" opacity="0"/>
  <path id="lock" d="M17.684,10.476V7.684a5.684,5.684,0,0,0-11.368,0v2.792A4.2,4.2,0,0,0,4,14.212V18a4.215,4.215,0,0,0,4.21,4.211h7.579A4.215,4.215,0,0,0,20,18v-3.79a4.2,4.2,0,0,0-2.316-3.736Zm-4,5.38A1.684,1.684,0,1,1,12,14.172,1.684,1.684,0,0,1,13.684,15.856ZM12,4.107a3.583,3.583,0,0,1,3.579,3.578v1.9a.421.421,0,0,1-.421.421H8.842a.421.421,0,0,1-.421-.421v-1.9A3.583,3.583,0,0,1,12,4.107Z" fill="#21262c"/>
<style type="text/css" media="screen">path{vector-effect:non-scaling-stroke}</style></svg>
