<svg id="_24x24-History" data-name="24x24-History" xmlns="http://www.w3.org/2000/svg" width="24" height="24" viewBox="0 0 24 24">
  <rect id="Frame24" width="24" height="24" fill="#fff" opacity="0"/>
  <path id="history" d="M12.542,3.04a8.958,8.958,0,1,1,0,17.917.833.833,0,0,1,0-1.667A7.292,7.292,0,1,0,5.51,10.068a.207.207,0,0,0,.2.263H7.167a.417.417,0,0,1,.3.712L4.839,13.669a.417.417,0,0,1-.589,0L1.622,11.043a.417.417,0,0,1,.294-.712H3.569a.207.207,0,0,0,.2-.167A8.975,8.975,0,0,1,12.542,3.04Zm3.976,11.569a.718.718,0,1,1-.971,1.058L11.983,12.4a.719.719,0,0,1-.233-.53V7.919a.719.719,0,0,1,1.437,0v3.637Z" transform="translate(0.5 0.06)" fill="#21262c"/>
<style type="text/css" media="screen">path{vector-effect:non-scaling-stroke}</style></svg>
