<svg id="_24x24-Timelapse" data-name="24x24-Timelapse" xmlns="http://www.w3.org/2000/svg" width="24" height="24" viewBox="0 0 24 24">
  <rect id="Frame24" width="24" height="24" fill="#fff" opacity="0"/>
  <path id="timelapse" d="M12,2A10,10,0,1,1,2,12,10.011,10.011,0,0,1,12,2ZM3.667,12A8.333,8.333,0,1,0,12,3.667,8.333,8.333,0,0,0,3.667,12ZM12,5.333A6.667,6.667,0,1,1,5.333,12a.417.417,0,0,1,.417-.417h5.833V5.75A.417.417,0,0,1,12,5.333Z" fill="#21262c"/>
<style type="text/css" media="screen">path{vector-effect:non-scaling-stroke}</style></svg>
