<svg id="_24x24-Chat" data-name="24x24-Chat" xmlns="http://www.w3.org/2000/svg" width="24" height="24" viewBox="0 0 24 24">
  <rect id="Frame24" width="24" height="24" fill="#fff" opacity="0"/>
  <path id="chat" d="M20.7,4.8H3.3A1.3,1.3,0,0,0,2,6.1V17.889a1.269,1.269,0,0,0,1.3,1.259H5.913v3.478a.435.435,0,0,0,.683.357l5.54-3.836H20.7a1.3,1.3,0,0,0,1.3-1.3V6.1A1.3,1.3,0,0,0,20.7,4.8Zm-2.609,7.341a1.3,1.3,0,1,1-1.3-1.3A1.3,1.3,0,0,1,18.087,12.141Zm-12.174,0a1.3,1.3,0,1,1,1.3,1.3A1.3,1.3,0,0,1,5.913,12.141Zm4.783,0a1.3,1.3,0,1,1,1.3,1.3A1.3,1.3,0,0,1,10.7,12.141Z" transform="translate(0 -1.8)" fill="#21262c"/>
<style type="text/css" media="screen">path{vector-effect:non-scaling-stroke}</style></svg>
