<svg id="_24x24-Timer" data-name="24x24-Timer" xmlns="http://www.w3.org/2000/svg" width="24" height="24" viewBox="0 0 24 24">
  <rect id="Frame24" width="24" height="24" fill="#fff" opacity="0"/>
  <path id="timer" d="M18.209,8.88v0a7.671,7.671,0,0,1,.53,9.763,8.446,8.446,0,0,1-9.753,2.812,7.882,7.882,0,0,1-5.161-8.428,8.1,8.1,0,0,1,7.3-6.814V3.667H9.391a.851.851,0,0,1-.868-.833A.851.851,0,0,1,9.391,2H14.6a.851.851,0,0,1,.868.833.851.851,0,0,1-.868.833H12.863V6.211a8.4,8.4,0,0,1,4.074,1.534l1.389-1.333a.892.892,0,0,1,.844-.227.851.851,0,0,1,.62.6.811.811,0,0,1-.237.81L18.209,8.88ZM11.995,20.333a6.392,6.392,0,0,0,6.51-6.25,6.384,6.384,0,0,0-6.51-6.25,6.384,6.384,0,0,0-6.51,6.25,6.384,6.384,0,0,0,6.51,6.25ZM9.571,10.578l3.038,2.917a.81.81,0,0,1,0,1.178.907.907,0,0,1-1.227,0L8.343,11.756a.81.81,0,0,1,.011-1.168A.894.894,0,0,1,9.571,10.578Z" fill="#21262c"/>
<style type="text/css" media="screen">path{vector-effect:non-scaling-stroke}</style></svg>
