<svg id="_24x24-Star-Full" data-name="24x24-Star-Full" xmlns="http://www.w3.org/2000/svg" width="24" height="24" viewBox="0 0 24 24">
  <rect id="Frame24" width="24" height="24" fill="#fff" opacity="0"/>
  <path id="star-full" d="M21.92,9.191a1.292,1.292,0,0,0-1.207-.841H15.488a.429.429,0,0,1-.405-.287L13.207,2.747a1.288,1.288,0,0,0-2.412,0l0,.014L8.92,8.063a.429.429,0,0,1-.4.287H3.289a1.288,1.288,0,0,0-.827,2.276l4.45,3.691a.429.429,0,0,1,.133.466l-1.87,5.606a1.288,1.288,0,0,0,1.983,1.446l4.589-3.365a.429.429,0,0,1,.507,0l4.587,3.364a1.288,1.288,0,0,0,1.985-1.445l-1.87-5.61a.429.429,0,0,1,.133-.466l4.459-3.7a1.288,1.288,0,0,0,.372-1.426Z" transform="translate(0 0.09)" fill="#21262c"/>
<style type="text/css" media="screen">path{vector-effect:non-scaling-stroke}</style></svg>
