<svg id="_24x24-LogOut" data-name="24x24-LogOut" xmlns="http://www.w3.org/2000/svg" width="24" height="24" viewBox="0 0 24 24">
  <rect id="Frame24" width="24" height="24" fill="#21262c" opacity="0"/>
  <path id="logout" d="M14.334,2.45a1.819,1.819,0,0,1,1.818,1.818V8a.909.909,0,0,1-1.818,0V4.723a.455.455,0,0,0-.455-.455H5.243a.455.455,0,0,0-.455.455V19.268a.455.455,0,0,0,.455.455h8.636a.455.455,0,0,0,.455-.455V16a.909.909,0,0,1,1.818,0v3.727a1.819,1.819,0,0,1-1.818,1.818H4.788A1.819,1.819,0,0,1,2.97,19.723V4.268A1.819,1.819,0,0,1,4.788,2.45Zm3.236,6.88a.714.714,0,0,1,1.069,0l2.137,2.137a.714.714,0,0,1,0,1.069l-2.137,2.137a.662.662,0,0,1-.8.16.312.312,0,0,1-.181-.081l-.086-.079a.689.689,0,0,1-.214-.535v-.961a.23.23,0,0,0-.214-.214H9.555a.962.962,0,0,1,0-1.923h7.587a.232.232,0,0,0,.214-.214V9.864a.685.685,0,0,1,.214-.534Z" transform="translate(0.03)" fill="#21262c"/>
<style type="text/css" media="screen">path{vector-effect:non-scaling-stroke}</style></svg>
