<svg id="cod007" xmlns="http://www.w3.org/2000/svg" width="24" height="24" viewBox="0 0 24 24">
  <rect id="Rectangle_6424" data-name="Rectangle 6424" width="24" height="24" fill="#0071a9" opacity="0"/>
  <g id="Group_14668" data-name="Group 14668" transform="translate(-0.05 -0.05)">
    <path id="Path_9102" data-name="Path 9102" d="M22.1,11.5v1.1a1.088,1.088,0,0,1-.9,1.1l-1.3.2a6.715,6.715,0,0,1-1,2.3l.8,1.1a1.209,1.209,0,0,1-.1,1.5l-.8.8a1.2,1.2,0,0,1-1.5.1l-1.1-.8a9.432,9.432,0,0,1-2.3,1l-.2,1.3a1.172,1.172,0,0,1-1.1.9H11.5a1.088,1.088,0,0,1-1.1-.9l-.2-1.3a6.715,6.715,0,0,1-2.3-1l-1.1.8a1.209,1.209,0,0,1-1.5-.1l-.8-.8a1.2,1.2,0,0,1-.1-1.5l.8-1.1a9.432,9.432,0,0,1-1-2.3l-1.3-.2A1.172,1.172,0,0,1,2,12.6V11.5a1.088,1.088,0,0,1,.9-1.1l1.3-.2a6.714,6.714,0,0,1,1-2.3L4.4,6.8a1.209,1.209,0,0,1,.1-1.5l.8-.8a1.2,1.2,0,0,1,1.5-.1l1.1.8a9.432,9.432,0,0,1,2.3-1l.2-1.3A1.172,1.172,0,0,1,11.5,2h1.1a1.088,1.088,0,0,1,1.1.9l.2,1.3a6.715,6.715,0,0,1,2.3,1l1.1-.8a1.209,1.209,0,0,1,1.5.1l.8.8a1.2,1.2,0,0,1,.1,1.5l-.8,1.1a9.431,9.431,0,0,1,1,2.3l1.3.2A1.172,1.172,0,0,1,22.1,11.5Zm-10-2.9a3.5,3.5,0,1,0,3.5,3.5A3.543,3.543,0,0,0,12.1,8.6Z" fill="#0071a9" opacity="0.3"/>
    <path id="Path_9103" data-name="Path 9103" d="M17.1,12.1a5,5,0,1,1-5-5A4.951,4.951,0,0,1,17.1,12.1Zm-5-2a2,2,0,1,0,2,2A2.006,2.006,0,0,0,12.1,10.1Z" fill="#0071a9"/>
  </g>
</svg>
