<svg id="fin001" xmlns="http://www.w3.org/2000/svg" width="24" height="24" viewBox="0 0 24 24">
  <rect id="Rectangle_6425" data-name="Rectangle 6425" width="24" height="24" fill="#0071a9" opacity="0"/>
  <g id="Group_14669" data-name="Group 14669" transform="translate(0 0.138)">
    <path id="Path_9104" data-name="Path 9104" d="M20,19.725v-1a.945.945,0,0,0-1-1H5a.945.945,0,0,0-1,1v1H3a.945.945,0,0,0-1,1v1H22v-1a.945.945,0,0,0-1-1Z" fill="#0071a9"/>
    <path id="Path_9105" data-name="Path 9105" d="M22,6.725v1a.945.945,0,0,1-1,1H18a.945.945,0,0,1,1,1,.945.945,0,0,1-1,1v5a.945.945,0,0,1,1,1v1H15v-1a.945.945,0,0,1,1-1v-5a.945.945,0,0,1-1-1,.945.945,0,0,1,1-1H13a.945.945,0,0,1,1,1,.945.945,0,0,1-1,1v5a.945.945,0,0,1,1,1v1H10v-1a.945.945,0,0,1,1-1v-5a.945.945,0,0,1-1-1,.945.945,0,0,1,1-1H8a.945.945,0,0,1,1,1,.945.945,0,0,1-1,1v5a.945.945,0,0,1,1,1v1H5v-1a.945.945,0,0,1,1-1v-5a.945.945,0,0,1-1-1,.945.945,0,0,1,1-1H3a.945.945,0,0,1-1-1v-1l9-4.5a2.56,2.56,0,0,1,2.1,0Zm-10-3a1.538,1.538,0,0,0-1.5,1.5,1.5,1.5,0,0,0,3,0A1.538,1.538,0,0,0,12,3.725Z" fill="#0071a9" opacity="0.3"/>
  </g>
</svg>
