<?xml version="1.0" standalone="no"?>
<!DOCTYPE svg PUBLIC "-//W3C//DTD SVG 20010904//EN"
 "http://www.w3.org/TR/2001/REC-SVG-20010904/DTD/svg10.dtd">
<svg version="1.0" xmlns="http://www.w3.org/2000/svg"
 width="3508.000000pt" height="3508.000000pt" viewBox="0 0 3508.000000 3508.000000"
 preserveAspectRatio="xMidYMid meet">
<metadata>
Created by potrace 1.16, written by Peter Selinger 2001-2019
</metadata>
<g transform="translate(0.000000,3508.000000) scale(0.100000,-0.100000)"
fill="#000000" stroke="none">
<path d="M28138 28831 c-152 -75 -284 -144 -293 -151 -31 -26 -35 -56 -18
-132 21 -95 48 -123 106 -113 23 4 57 9 75 12 20 3 41 0 55 -10 51 -33 76
-116 203 -667 68 -294 123 -538 121 -543 -4 -14 -542 492 -993 936 -139 136
-208 197 -224 197 -31 0 -411 -168 -438 -195 -27 -25 -30 -56 -12 -139 13 -64
45 -106 79 -106 12 0 50 12 87 26 l66 27 33 -34 34 -34 156 -760 c143 -692
156 -767 153 -841 -5 -96 -39 -176 -93 -221 -71 -58 -94 -73 -113 -73 -11 0
-40 -9 -66 -20 -32 -15 -51 -18 -64 -11 -9 5 -57 83 -106 173 -208 383 -478
890 -673 1268 -116 223 -222 417 -236 433 -30 32 -62 34 -127 8 -77 -32 -74
-22 -115 -461 -83 -905 -179 -1811 -199 -1888 -19 -69 -45 -113 -84 -137 -17
-11 -46 -29 -64 -40 -41 -26 -49 -58 -34 -137 15 -80 28 -103 64 -116 32 -11
44 -7 432 134 253 93 280 109 280 168 0 69 -22 146 -48 166 -31 25 -54 25
-120 0 -70 -27 -96 -25 -121 6 -17 22 -21 41 -21 99 0 87 28 347 38 356 4 3
110 45 236 93 126 49 243 94 262 102 l33 14 101 -190 c56 -104 100 -197 98
-207 -2 -11 -36 -34 -88 -60 -47 -23 -94 -53 -104 -67 -18 -24 -18 -28 -3
-107 19 -91 26 -103 66 -117 22 -8 44 -3 117 25 224 86 601 247 620 264 11 11
30 19 42 19 19 0 337 137 615 264 97 45 105 59 87 157 -23 119 -62 148 -155
114 -91 -32 -144 -7 -185 87 -18 42 -260 1160 -260 1201 0 5 127 -114 283
-265 320 -309 509 -488 779 -736 215 -198 215 -197 323 -139 102 55 114 -37
-124 991 -116 498 -213 933 -217 968 -6 66 7 161 28 206 7 14 39 46 70 70 33
24 61 54 64 68 9 35 -23 155 -48 182 -14 14 -32 22 -52 21 -18 0 -145 -57
-308 -138z m-1901 -2377 c-41 -21 -347 -137 -351 -133 -2 2 13 167 32 366 l36
361 152 -291 c148 -284 151 -292 131 -303z"/>
<path d="M5741 28643 c-24 -20 -51 -106 -52 -166 -2 -52 23 -76 127 -122 67
-30 86 -43 91 -63 4 -16 -49 -281 -146 -726 -186 -862 -174 -798 -175 -936 -1
-186 51 -358 148 -494 166 -233 531 -414 762 -378 243 38 406 200 488 486 14
46 77 355 140 687 64 333 123 625 131 650 22 64 48 89 92 89 46 0 194 -70 222
-106 25 -32 18 -4 201 -748 l153 -620 -58 -345 c-32 -190 -61 -349 -64 -353
-4 -4 -48 8 -99 27 -134 51 -165 37 -188 -83 -14 -75 -10 -114 15 -135 29 -26
780 -297 823 -297 48 0 69 29 84 113 20 119 7 139 -122 181 -132 43 -127 6
-56 435 l62 370 123 188 c68 103 195 300 282 438 88 137 177 267 199 289 l39
39 83 -7 c79 -7 85 -6 107 17 18 17 27 42 35 96 11 74 6 107 -20 128 -12 10
-548 199 -628 222 -70 19 -105 -16 -121 -123 -11 -72 -10 -80 8 -104 12 -16
46 -37 82 -50 45 -17 66 -32 76 -52 18 -35 19 -105 2 -142 -16 -36 -340 -538
-348 -538 -5 0 -229 883 -229 902 0 4 39 -6 87 -23 48 -16 94 -29 104 -29 35
0 67 39 79 97 18 86 15 122 -11 148 -14 13 -120 59 -244 105 -258 97 -686 267
-940 374 -188 80 -232 89 -264 57 -20 -20 -45 -114 -44 -169 1 -42 15 -58 84
-93 31 -15 68 -43 81 -61 21 -30 23 -42 22 -153 -1 -110 -11 -170 -112 -690
-62 -313 -122 -601 -134 -639 -27 -88 -90 -181 -146 -221 -41 -28 -50 -30
-135 -30 -85 0 -98 3 -170 37 -140 67 -228 175 -263 324 -21 90 -14 236 21
404 89 435 268 1266 274 1272 3 4 40 -9 81 -28 126 -60 169 -46 195 62 20 82
18 109 -7 138 -13 14 -95 58 -188 99 -91 41 -257 118 -369 171 -112 53 -214
96 -227 96 -12 0 -31 -8 -43 -17z"/>
<path d="M25730 28609 c-30 -11 -65 -29 -77 -42 -16 -17 -41 -100 -102 -340
-45 -175 -81 -331 -81 -347 0 -40 35 -70 79 -70 39 0 110 29 127 51 6 8 39 79
74 159 34 80 65 148 69 152 3 3 58 -31 121 -78 63 -46 124 -84 136 -84 30 0
95 28 122 53 34 32 30 84 -11 133 -19 21 -100 120 -181 219 -81 99 -155 185
-164 191 -31 22 -57 22 -112 3z"/>
<path d="M8406 28570 c-55 -22 -78 -40 -106 -85 -57 -92 -20 -192 78 -211 27
-6 37 -1 68 30 33 33 36 40 31 79 -3 23 -9 52 -12 64 -6 19 -2 23 27 28 46 9
84 -8 108 -47 26 -42 25 -93 -1 -163 -21 -56 -32 -68 -168 -177 -53 -43 -96
-108 -122 -185 -11 -34 -10 -38 11 -55 12 -10 35 -18 51 -18 26 0 32 6 50 48
28 65 50 85 158 149 123 72 184 133 205 204 47 156 -26 291 -182 339 -79 25
-133 25 -196 0z"/>
<path d="M24322 27265 c-34 -7 -165 -45 -290 -84 -125 -38 -315 -95 -422 -126
-280 -80 -270 -75 -270 -159 0 -79 19 -145 47 -163 24 -16 31 -16 126 10 56
14 102 25 104 24 3 -4 253 -1863 253 -1886 0 -25 -11 -30 -132 -66 -117 -34
-125 -46 -111 -158 9 -68 15 -85 38 -104 14 -13 36 -23 47 -23 36 0 706 197
872 256 168 60 304 153 404 278 240 296 314 732 216 1264 -58 314 -170 560
-337 739 -160 171 -355 242 -545 198z m113 -319 c157 -73 285 -373 355 -833
44 -288 49 -514 15 -678 -33 -157 -145 -308 -276 -372 -67 -33 -246 -90 -254
-81 -3 3 -64 429 -137 947 -93 668 -128 945 -120 953 5 5 66 28 134 49 148 46
211 49 283 15z"/>
<path d="M19986 27109 c-28 -4 -61 -16 -74 -26 -17 -13 -54 -95 -134 -298
-137 -348 -137 -345 -114 -379 9 -15 29 -31 43 -37 35 -13 107 -1 138 23 14
11 60 75 102 144 42 68 80 124 84 124 4 0 17 -12 28 -27 12 -14 57 -64 101
-111 l80 -84 65 4 c50 3 70 9 90 28 45 42 37 64 -130 350 -85 146 -162 270
-172 276 -29 19 -55 22 -107 13z"/>
<path d="M9783 27085 c-26 -18 -39 -58 -48 -141 -9 -83 10 -104 126 -138 48
-14 92 -33 100 -42 11 -13 -7 -167 -111 -957 -67 -518 -124 -944 -126 -946 -2
-2 -46 9 -98 24 -139 41 -166 27 -185 -93 -12 -72 -6 -114 18 -135 26 -24 850
-253 995 -278 40 -7 104 -9 150 -6 287 21 482 174 552 432 25 92 30 287 10
378 -31 139 -122 289 -232 384 l-53 46 51 26 c80 40 170 136 211 222 166 349
35 781 -283 937 -60 30 -157 61 -330 107 -135 36 -347 95 -472 130 -124 36
-232 65 -240 65 -7 0 -23 -7 -35 -15z m698 -451 c178 -51 250 -97 290 -186 21
-47 24 -67 24 -178 -1 -267 -74 -443 -192 -466 -29 -6 -73 1 -182 29 -80 21
-147 40 -150 42 -3 3 16 175 42 383 26 207 48 380 47 385 0 12 63 8 121 -9z
m-84 -1079 c154 -41 216 -75 265 -145 60 -84 81 -165 81 -300 -1 -203 -53
-363 -136 -418 -36 -24 -49 -27 -121 -26 -57 1 -115 10 -196 33 -158 43 -160
44 -160 83 0 18 23 209 50 423 27 215 50 391 50 393 0 2 10 0 21 -3 12 -4 78
-22 146 -40z"/>
<path d="M22362 26730 c-323 -78 -332 -82 -332 -159 2 -133 29 -174 117 -176
32 -1 68 -7 81 -14 29 -15 67 -91 81 -161 14 -70 123 -1078 119 -1099 -5 -22
-481 617 -887 1192 -97 136 -140 189 -158 193 -23 6 -334 -43 -426 -67 -58
-15 -71 -44 -64 -140 4 -66 9 -85 29 -106 22 -24 26 -25 104 -19 l82 7 31 -39
31 -40 65 -758 c36 -416 65 -794 65 -839 0 -109 -21 -167 -81 -227 -27 -26
-52 -48 -58 -48 -5 0 -22 -5 -38 -12 -15 -6 -63 -13 -105 -14 -71 -3 -79 -2
-92 19 -26 39 -489 1297 -696 1892 -76 217 -86 231 -169 228 -65 -2 -95 -13
-111 -42 -5 -11 -37 -147 -69 -303 -122 -577 -283 -1312 -370 -1686 -58 -250
-90 -311 -176 -333 -22 -5 -47 -12 -55 -15 -8 -3 -61 -6 -118 -8 -96 -2 -103
-1 -107 18 -6 25 -75 1730 -75 1845 0 58 4 81 13 81 42 1 160 21 177 30 28 15
38 66 31 149 -11 115 -25 121 -232 101 -57 -6 -208 -19 -334 -29 -127 -10
-241 -23 -253 -30 -48 -26 -52 -192 -5 -239 22 -22 30 -24 109 -21 78 4 85 2
89 -16 3 -11 11 -183 18 -383 12 -360 12 -363 -8 -367 -11 -2 -103 -9 -205
-14 -102 -6 -228 -14 -281 -17 l-96 -6 -6 152 c-4 84 -7 258 -7 385 l0 232 53
7 c28 3 66 6 84 6 19 0 43 10 60 24 27 23 28 28 27 111 0 80 -3 88 -27 113
-33 32 -12 32 -442 13 -320 -13 -375 -21 -375 -53 0 -6 -11 -1 -25 12 -28 26
-17 26 -393 22 l-263 -2 -24 -25 c-23 -22 -25 -32 -25 -113 0 -79 2 -91 23
-110 12 -12 45 -26 73 -32 60 -13 95 -45 121 -110 16 -41 18 -98 21 -630 2
-501 1 -582 -11 -565 -36 52 -519 949 -746 1386 -50 97 -100 184 -111 194 -17
16 -46 20 -173 26 -274 13 -294 12 -322 -16 -23 -22 -25 -32 -25 -113 0 -80 2
-91 23 -111 16 -14 41 -23 78 -27 90 -9 93 -10 123 -66 l28 -53 -15 -817 c-15
-764 -18 -819 -36 -868 -37 -96 -97 -150 -170 -150 -52 0 -77 -34 -85 -117 -9
-92 7 -136 56 -151 33 -11 443 -32 618 -32 83 0 93 2 115 25 23 22 25 32 25
113 0 107 -13 124 -104 141 -73 13 -121 49 -150 110 -21 46 -21 52 -18 630 2
322 7 603 11 625 l7 41 53 -105 c89 -174 429 -808 576 -1075 228 -415 275
-494 297 -506 12 -6 52 -9 94 -7 61 3 77 7 99 28 l27 25 -3 995 c-3 1087 -5
1054 54 1141 19 29 32 36 82 46 37 7 66 19 76 32 16 19 16 19 38 -2 18 -18 35
-23 106 -26 l84 -3 5 -42 c8 -60 36 -1875 29 -1892 -4 -10 -23 -14 -74 -14
-132 0 -167 -37 -156 -169 4 -55 9 -69 32 -88 31 -27 62 -28 412 -13 369 16
392 18 419 46 21 21 24 32 24 108 0 75 -3 88 -24 113 -24 27 -26 28 -119 25
l-95 -3 -5 33 c-3 18 -9 214 -13 434 l-7 401 139 8 c76 4 214 12 305 19 l166
11 7 -180 c18 -507 20 -677 5 -686 -8 -5 -39 -9 -69 -9 -30 -1 -71 -6 -90 -13
-47 -16 -64 -66 -54 -156 9 -85 33 -111 101 -111 99 0 727 55 744 65 5 4 55 8
112 10 56 2 214 18 351 34 312 38 303 32 298 194 -2 47 -7 63 -27 82 -22 23
-32 25 -113 25 -82 0 -90 2 -113 26 -20 21 -23 35 -22 85 1 47 58 354 68 367
3 4 503 72 531 72 18 0 31 -29 97 -209 42 -115 77 -216 77 -225 0 -21 -26 -33
-100 -45 -109 -18 -125 -39 -118 -161 4 -85 30 -120 87 -120 33 0 538 76 654
98 27 6 54 15 59 20 6 6 23 8 38 6 15 -3 67 2 116 10 371 68 572 110 591 122
38 24 45 49 38 131 -6 57 -13 81 -30 101 -21 25 -29 27 -89 24 -113 -4 -158
29 -191 143 -14 46 -119 1182 -113 1213 2 7 23 -15 47 -50 177 -251 558 -770
865 -1176 118 -156 175 -224 193 -228 13 -4 56 2 95 12 54 14 76 26 92 47 l20
28 -102 937 c-56 515 -102 969 -102 1008 0 72 21 160 46 200 8 12 40 32 70 45
77 31 88 51 79 144 -8 93 -37 136 -88 134 -18 -1 -160 -32 -315 -69z m-2183
-1620 c48 -135 88 -246 87 -247 -3 -4 -379 -53 -382 -50 -2 1 28 146 66 322
39 176 73 334 76 350 6 28 9 24 35 -50 16 -44 69 -190 118 -325z"/>
<path d="M12124 26572 c-37 -5 -59 -42 -119 -197 -96 -249 -445 -1120 -579
-1444 -174 -422 -189 -443 -300 -438 -79 3 -103 -22 -112 -119 -8 -90 -1 -120
34 -138 28 -14 564 -134 642 -143 64 -7 88 20 101 115 14 98 -2 136 -63 152
-158 43 -194 85 -169 194 12 51 106 295 119 308 6 5 540 -95 546 -104 6 -7 86
-446 86 -472 l0 -29 -62 9 c-143 18 -165 6 -178 -102 -5 -38 -6 -81 -3 -96 11
-57 17 -59 478 -138 132 -22 256 -40 275 -39 19 2 44 -2 55 -8 21 -12 637
-103 693 -103 54 0 78 33 85 118 10 107 -4 136 -80 158 -85 24 -120 49 -150
107 -39 78 -39 153 1 752 20 297 36 549 36 560 0 11 76 -146 169 -350 172
-378 408 -882 569 -1217 58 -118 99 -192 114 -202 13 -9 55 -18 93 -22 62 -5
73 -4 97 15 14 12 29 34 32 49 3 15 24 448 46 962 22 514 45 962 51 995 13 74
55 155 89 172 14 7 42 13 63 13 75 0 97 34 97 152 0 59 -3 72 -24 93 -27 27
-23 27 -370 59 -145 13 -269 21 -280 16 -47 -18 -59 -45 -60 -134 -1 -97 11
-119 77 -137 57 -15 85 -36 107 -79 40 -78 42 -143 20 -634 -11 -253 -23 -499
-26 -546 l-7 -85 -74 155 c-139 288 -400 853 -552 1190 -98 218 -158 341 -173
352 -15 11 -84 26 -208 44 -221 32 -255 33 -281 7 -27 -27 -42 -155 -24 -200
16 -38 34 -48 100 -58 69 -10 78 -17 109 -77 l26 -53 -54 -810 c-40 -592 -59
-822 -71 -854 -19 -56 -58 -107 -94 -126 -60 -30 -235 -12 -281 30 -11 10 -26
47 -34 84 -38 166 -258 1337 -371 1970 -25 140 -52 265 -60 277 -18 27 -105
54 -151 46z m-18 -1169 c35 -190 63 -347 61 -348 -5 -4 -366 71 -372 77 -7 7
237 629 244 622 2 -2 32 -160 67 -351z"/>
<path d="M29571 24091 c-166 -65 -310 -125 -321 -134 -24 -20 -26 -42 -45
-402 -29 -567 -76 -1340 -83 -1368 -6 -25 -14 -15 -91 120 -102 182 -554 994
-643 1158 -43 79 -74 124 -90 132 -23 12 -57 2 -319 -86 -357 -120 -326 -107
-337 -139 -8 -25 5 -117 23 -165 13 -32 53 -32 162 4 74 24 106 30 114 22 6
-6 81 -377 166 -824 126 -661 155 -832 156 -909 2 -134 -17 -166 -148 -237
-81 -45 -87 -59 -68 -153 14 -67 35 -100 63 -100 34 0 706 232 724 250 18 17
18 24 6 94 -9 55 -19 81 -36 97 -23 21 -27 22 -94 10 -38 -7 -82 -10 -98 -6
-56 12 -103 80 -131 191 -13 51 -251 1291 -251 1307 0 17 19 -15 185 -318 168
-305 570 -1023 652 -1162 39 -68 61 -95 79 -99 36 -9 126 27 141 57 12 25 37
369 88 1199 13 223 27 472 31 553 4 81 10 150 14 152 3 2 77 -327 164 -731
147 -686 157 -736 142 -758 -10 -16 -49 -37 -113 -62 -143 -55 -147 -61 -124
-176 14 -67 31 -88 70 -88 24 0 385 134 731 271 164 66 168 70 141 178 -28
111 -42 115 -199 54 -80 -32 -95 -35 -107 -22 -7 8 -100 409 -208 904 -229
1045 -212 955 -195 977 7 10 60 37 118 60 126 52 133 61 114 151 -18 86 -22
94 -53 105 -24 8 -71 -7 -330 -107z"/>
<path d="M4165 23945 c-202 -44 -428 -218 -567 -435 -207 -323 -291 -826 -208
-1235 68 -335 227 -588 468 -746 95 -63 199 -101 333 -123 l36 -6 -5 -168 c-7
-247 20 -354 117 -464 24 -27 66 -59 99 -75 50 -24 69 -28 147 -28 86 0 94 2
149 35 97 58 174 181 216 344 36 141 28 161 -73 188 -72 19 -80 11 -116 -110
-58 -190 -135 -146 -146 85 -3 59 -7 147 -10 195 l-5 87 68 45 c299 199 474
529 533 1006 7 58 9 155 6 250 -23 593 -308 1031 -747 1146 -85 22 -214 26
-295 9z m357 -283 c123 -60 213 -185 259 -359 27 -100 37 -345 20 -494 -34
-301 -110 -607 -198 -801 l-37 -81 -13 68 c-29 156 -85 269 -180 357 -123 114
-296 148 -429 83 -56 -27 -136 -101 -162 -149 l-17 -31 -3 85 c-6 163 24 385
84 628 98 399 228 629 397 708 43 20 65 23 132 21 68 -2 91 -7 147 -35z m-357
-1451 c95 -43 137 -137 137 -305 -1 -87 -16 -234 -26 -244 -7 -6 -132 -3 -161
4 -38 9 -133 58 -163 83 -35 30 -54 96 -55 191 -3 214 120 339 268 271z"/>
<path d="M26585 23904 c-22 -8 -45 -20 -52 -27 -11 -11 -199 -600 -204 -637
-7 -58 19 -84 77 -76 87 12 76 -2 234 289 27 50 46 75 53 70 7 -4 66 -47 132
-97 133 -100 155 -107 231 -70 33 16 39 24 42 54 2 32 -12 52 -168 240 -245
293 -222 270 -267 269 -21 0 -56 -7 -78 -15z"/>
<path d="M5497 23492 c-23 -25 -46 -142 -35 -172 12 -32 16 -34 126 -71 103
-34 122 -48 122 -88 0 -16 -58 -343 -129 -727 -144 -774 -156 -855 -147 -964
29 -324 208 -554 529 -678 181 -71 316 -91 448 -68 273 49 451 245 523 576 8
41 58 341 111 667 56 347 103 615 115 646 35 94 80 118 180 97 104 -22 122 -6
136 125 8 75 -1 85 -111 115 -44 12 -197 56 -340 97 -142 42 -270 76 -283 76
-37 0 -54 -25 -68 -99 -17 -95 -5 -120 71 -144 114 -35 144 -84 145 -230 0
-73 -22 -229 -95 -680 -96 -589 -116 -683 -162 -774 -37 -74 -117 -149 -186
-174 -179 -67 -453 35 -552 205 -64 108 -85 228 -66 383 11 89 245 1405 257
1443 7 23 34 21 129 -8 138 -43 158 -34 177 88 11 73 10 79 -8 95 -10 10 -66
33 -124 51 -58 18 -241 77 -407 132 -166 54 -311 99 -321 99 -10 0 -26 -8 -35
-18z"/>
<path d="M8392 23481 c-7 -4 -96 -115 -197 -247 -151 -195 -185 -245 -185
-271 0 -42 30 -63 102 -69 l53 -6 128 107 c71 59 130 105 132 103 1 -2 44 -76
96 -166 l93 -162 50 -15 c27 -8 59 -15 71 -15 26 0 55 29 55 56 0 27 -210 636
-227 655 -23 27 -143 48 -171 30z"/>
<path d="M27300 23290 c-179 -60 -646 -201 -960 -290 -333 -95 -337 -96 -346
-122 -11 -36 6 -146 27 -173 24 -30 44 -31 129 -5 80 25 107 25 114 3 10 -33
296 -1842 296 -1872 0 -31 -18 -56 -48 -65 -130 -37 -162 -48 -172 -61 -15
-18 -7 -144 11 -176 24 -47 40 -44 422 66 647 186 1151 343 1178 368 10 10 19
30 19 46 0 37 -117 862 -125 883 -17 44 -136 32 -182 -17 -20 -23 -21 -31 -16
-142 16 -344 -77 -590 -262 -698 -40 -23 -386 -135 -418 -135 -21 0 -14 -32
-92 450 -36 223 -67 413 -69 422 -3 13 8 21 49 33 119 34 191 13 246 -72 29
-47 89 -215 89 -251 0 -10 10 -29 21 -41 19 -20 28 -22 66 -17 65 9 112 34
120 64 7 30 -174 1090 -190 1110 -24 30 -47 33 -105 17 -92 -27 -91 -25 -85
-184 5 -122 3 -146 -15 -208 -31 -100 -76 -148 -167 -177 l-70 -23 -62 371
c-66 399 -70 428 -50 443 6 6 96 35 200 67 226 67 275 71 353 26 85 -48 154
-155 230 -353 23 -60 49 -118 58 -128 19 -23 49 -24 107 -4 52 19 79 42 79 67
0 45 -173 784 -188 801 -22 25 -62 20 -192 -23z"/>
<path d="M25690 22820 c-36 -9 -209 -54 -385 -99 -364 -93 -372 -96 -381 -123
-12 -40 6 -147 31 -176 l23 -26 93 22 c114 27 146 28 153 5 8 -27 266 -1852
266 -1884 0 -38 -24 -52 -140 -79 -128 -30 -134 -37 -126 -124 7 -79 22 -116
51 -126 22 -8 138 18 590 136 160 42 296 81 304 87 24 20 29 51 18 117 -17
109 -36 117 -192 76 -49 -13 -95 -22 -101 -19 -7 2 -15 15 -18 28 -6 22 -157
1047 -236 1602 -21 149 -36 280 -33 292 5 21 23 28 170 71 86 24 94 39 80 139
-14 103 -40 116 -167 81z"/>
<path d="M21285 22793 c-36 -10 -66 -36 -93 -82 -21 -36 -27 -59 -27 -107 0
-53 4 -67 37 -117 21 -31 64 -77 96 -104 88 -73 405 -310 422 -315 38 -13 100
47 100 97 0 30 -359 564 -400 597 -35 27 -97 42 -135 31z"/>
<path d="M8288 22714 c-9 -11 -109 -210 -223 -444 -114 -234 -322 -654 -462
-934 -214 -426 -263 -517 -303 -558 l-47 -49 -82 2 c-103 2 -114 -6 -130 -103
-11 -66 -10 -74 7 -97 10 -14 32 -29 48 -33 305 -85 637 -170 663 -170 47 0
59 17 73 105 11 74 11 78 -11 100 -13 14 -44 29 -76 36 -65 15 -111 44 -143
91 -38 57 -28 105 64 291 50 102 83 158 91 155 6 -3 148 -39 314 -81 167 -41
304 -76 305 -78 7 -9 84 -519 79 -527 -9 -14 -60 -12 -135 6 -110 26 -129 10
-137 -116 -5 -74 -5 -79 18 -93 13 -8 143 -42 289 -76 458 -106 473 -109 499
-99 18 7 29 4 45 -11 15 -14 95 -34 296 -76 151 -31 313 -65 360 -75 127 -27
147 -13 156 106 7 93 3 99 -88 128 -69 23 -121 64 -150 119 -41 79 -37 165 37
802 36 319 70 588 73 598 5 12 40 -59 111 -225 197 -459 640 -1448 724 -1618
37 -75 57 -88 149 -96 55 -6 65 -4 81 14 15 17 30 149 107 953 49 514 92 951
95 971 10 67 46 148 84 189 37 38 39 39 108 39 90 0 99 10 108 115 6 71 5 82
-11 97 -17 15 -120 35 -623 121 -63 10 -65 10 -86 -15 -16 -19 -24 -45 -29
-98 -8 -83 1 -101 63 -121 106 -34 152 -106 159 -248 3 -79 -85 -1070 -105
-1176 -8 -38 -11 -31 -161 298 -178 392 -406 911 -552 1252 -56 132 -110 247
-119 256 -10 10 -106 34 -249 64 l-233 49 -20 -21 c-14 -13 -23 -43 -30 -92
-12 -84 1 -116 49 -127 15 -3 52 -13 82 -22 53 -16 56 -20 88 -82 l33 -65 -90
-775 c-50 -426 -98 -801 -106 -833 -20 -75 -55 -130 -106 -164 -33 -22 -53
-27 -110 -29 -38 -1 -73 -4 -76 -8 -4 -3 -16 2 -27 13 -12 10 -35 21 -53 24
-70 13 -103 35 -123 79 -19 44 -148 808 -280 1658 -114 735 -101 670 -131 692
-14 11 -50 22 -80 25 -45 4 -57 2 -71 -13z m-9 -1150 l56 -360 -241 60 -241
60 154 315 c85 174 165 336 176 360 l22 44 9 -59 c5 -33 34 -221 65 -420z"/>
<path d="M22306 22420 c-59 -23 -89 -50 -115 -102 -36 -73 -11 -156 54 -184
50 -21 63 -18 102 21 32 32 35 39 30 78 -3 23 -9 52 -12 64 -6 19 -2 23 27 28
69 13 128 -41 128 -117 0 -74 -9 -83 -102 -96 -249 -34 -641 -102 -654 -113
-25 -20 -16 -169 11 -199 18 -20 26 -21 85 -16 81 8 123 -5 149 -47 22 -36 47
-120 55 -187 16 -123 106 -1196 106 -1256 -1 -192 -88 -375 -215 -450 -86 -50
-153 -67 -270 -68 -96 -1 -117 2 -162 23 -58 26 -130 97 -161 157 -29 57 -50
135 -62 228 -17 132 -111 1472 -104 1489 7 18 23 23 141 38 120 16 129 25 125
121 -5 133 -10 135 -249 103 -104 -13 -287 -36 -408 -50 -121 -14 -232 -31
-248 -37 -33 -13 -41 -38 -35 -123 3 -50 9 -71 25 -87 21 -20 24 -21 133 -8
78 9 114 10 122 2 6 -6 30 -309 59 -734 51 -765 60 -859 91 -972 64 -233 228
-395 445 -441 89 -19 268 -19 376 0 177 31 290 88 412 210 117 118 176 227
212 395 28 135 22 308 -36 930 -28 305 -51 584 -51 620 1 114 40 169 165 231
36 17 92 58 128 93 53 50 68 72 81 116 47 157 -26 292 -182 340 -79 25 -133
25 -196 0z"/>
<path d="M24050 22425 c-30 -7 -215 -45 -410 -85 -229 -46 -362 -78 -374 -89
-16 -14 -17 -25 -11 -85 12 -126 29 -138 158 -112 122 24 135 23 142 -16 14
-81 205 -1804 205 -1851 0 -29 -4 -57 -8 -64 -11 -17 -45 -28 -142 -48 -115
-23 -124 -32 -115 -119 8 -84 21 -115 53 -123 35 -9 676 122 1337 272 171 39
256 63 270 76 19 18 19 23 -24 476 -24 252 -48 468 -54 480 -14 32 -41 37
-108 23 -89 -19 -92 -26 -100 -203 -13 -284 -64 -460 -167 -578 -63 -71 -136
-104 -320 -144 -193 -42 -220 -44 -227 -12 -13 57 -225 1902 -220 1918 4 13
31 23 103 39 130 29 127 28 146 49 24 26 13 150 -16 186 -22 28 -37 29 -118
10z"/>
<path d="M12048 21958 c-33 -11 -38 -25 -45 -116 -7 -90 4 -107 80 -116 96
-12 114 -23 151 -86 l34 -58 -59 -808 c-41 -570 -63 -822 -74 -855 -36 -107
-102 -161 -209 -172 -33 -3 -66 -13 -74 -21 -11 -10 -17 -42 -20 -98 -4 -72
-2 -85 14 -100 19 -16 221 -47 626 -95 180 -21 182 -20 192 87 10 102 0 118
-97 147 -139 43 -187 117 -187 292 0 53 18 346 40 651 22 305 40 566 40 580 0
14 103 -183 239 -455 393 -793 704 -1390 729 -1400 27 -10 129 -18 155 -11 14
3 29 17 35 33 6 16 31 428 56 948 25 506 50 950 55 987 9 69 43 155 77 196 16
19 34 25 93 32 97 11 105 20 109 123 3 70 1 85 -15 99 -14 13 -85 22 -347 46
-220 21 -336 27 -348 21 -28 -15 -37 -41 -40 -117 -2 -78 15 -112 56 -112 37
-1 103 -37 129 -71 35 -48 57 -130 57 -218 0 -88 -48 -1040 -56 -1120 l-6 -55
-114 220 c-63 120 -263 516 -445 879 -181 363 -338 668 -347 677 -13 13 -68
23 -217 43 -110 14 -209 27 -220 29 -11 2 -32 0 -47 -6z"/>
<path d="M20300 21829 c-113 -15 -722 -69 -1048 -93 -259 -19 -316 -26 -330
-40 -15 -15 -18 -65 -25 -468 -9 -484 -7 -503 40 -514 38 -10 133 1 149 17 9
10 20 61 29 147 39 352 125 558 260 621 55 26 120 28 129 5 3 -9 26 -453 51
-987 34 -723 42 -973 34 -983 -7 -9 -33 -14 -68 -15 -187 -3 -215 -21 -209
-136 3 -58 8 -77 25 -94 l22 -22 318 27 c555 46 562 47 590 69 25 20 25 24 20
100 -8 120 -14 124 -164 109 -77 -8 -121 -8 -127 -2 -6 6 -31 431 -59 986 -55
1107 -59 1009 36 1008 67 -1 123 -30 174 -89 77 -86 151 -276 196 -500 13 -64
31 -123 39 -131 13 -13 29 -15 86 -9 119 12 114 -30 58 508 -37 355 -51 466
-63 480 -18 19 -54 20 -163 6z"/>
<path d="M14818 21723 c-8 -10 -43 -101 -78 -203 -174 -511 -521 -1495 -618
-1752 -68 -180 -112 -229 -212 -236 -83 -6 -100 -28 -100 -128 0 -77 11 -99
53 -109 53 -13 682 -53 704 -44 31 12 43 47 43 128 0 85 -11 96 -105 106 -88
9 -137 34 -159 79 -28 60 -21 102 59 324 l48 133 76 -6 c42 -3 183 -12 314
-19 131 -7 242 -17 246 -22 12 -14 131 -446 131 -477 0 -37 -32 -48 -132 -46
-101 2 -113 -8 -121 -98 -5 -73 5 -118 31 -128 36 -15 858 -44 1266 -46 300 0
286 -6 286 116 0 99 -7 108 -100 125 -80 14 -119 38 -147 87 -41 72 -43 133
-36 852 l6 684 109 -374 c247 -853 431 -1454 450 -1474 14 -16 32 -20 78 -20
46 0 64 4 79 20 21 21 132 422 365 1310 63 242 119 456 125 475 8 32 9 30 10
-30 1 -36 6 -386 12 -779 9 -667 9 -715 -7 -732 -14 -16 -32 -19 -110 -19 -92
0 -142 -10 -156 -33 -4 -7 -8 -48 -8 -93 0 -113 1 -114 171 -114 74 0 273 5
444 10 243 9 315 14 332 26 21 13 23 22 23 97 0 45 -4 87 -8 93 -18 27 -55 34
-156 32 -71 -2 -109 1 -117 9 -9 9 -15 204 -25 745 -17 945 -18 1208 -5 1221
5 5 60 13 121 17 142 8 146 11 142 123 -4 128 23 120 -367 108 -296 -9 -330
-12 -345 -28 -10 -10 -38 -100 -64 -203 -66 -258 -221 -849 -314 -1200 -51
-191 -81 -286 -84 -270 -3 14 -71 246 -151 515 -80 270 -187 634 -238 810 -57
201 -98 327 -110 340 -18 19 -37 20 -327 27 -227 5 -313 4 -331 -5 -31 -15
-44 -63 -39 -134 7 -82 19 -90 149 -95 62 -3 114 -9 121 -16 12 -12 12 -532
-2 -1342 -8 -498 -10 -522 -62 -577 -38 -40 -124 -59 -255 -55 -42 2 -59 8
-83 30 -27 24 -39 57 -106 292 -116 408 -313 1118 -414 1495 -130 483 -125
470 -155 483 -41 19 -129 15 -147 -5z m96 -1092 c59 -216 104 -396 101 -399
-5 -6 -467 17 -474 23 -2 3 56 173 128 379 72 207 131 381 131 387 0 7 2 10 4
8 2 -2 52 -181 110 -398z"/>
<path d="M7784 19961 c-23 -10 -54 -36 -70 -57 -25 -32 -29 -46 -29 -100 0
-55 4 -67 31 -101 65 -81 178 -94 251 -30 81 71 85 177 10 255 -51 53 -123 65
-193 33z"/>
<path d="M15005 18744 c-615 -49 -1627 -168 -1743 -205 -44 -14 -47 -34 -33
-202 15 -174 24 -205 59 -214 15 -3 146 10 292 30 353 48 364 49 444 38 81
-12 112 -31 145 -90 23 -43 25 -66 147 -2015 67 -1084 130 -2094 139 -2245 44
-714 -56 -918 -524 -1070 -64 -21 -132 -43 -151 -48 -58 -15 -62 -36 -46 -220
8 -87 18 -166 21 -175 12 -30 54 -36 143 -22 414 66 1105 138 1662 173 194 13
185 0 176 226 -9 215 -4 209 -167 219 -235 15 -361 60 -468 167 -107 109 -172
263 -206 489 -12 80 -246 4261 -245 4365 1 23 16 -10 206 -464 631 -1501 1211
-3084 1743 -4757 53 -166 64 -192 86 -202 15 -7 74 -12 140 -12 104 0 116 2
138 23 18 17 41 80 97 267 350 1177 843 2639 1310 3880 169 448 491 1274 495
1267 1 -1 -62 -1105 -140 -2453 -133 -2285 -144 -2453 -163 -2490 -42 -81
-116 -124 -216 -124 -28 0 -160 7 -293 16 -261 19 -264 18 -283 -32 -5 -11
-10 -94 -12 -182 -3 -150 -1 -163 17 -181 18 -18 48 -22 240 -36 619 -45 1176
-111 1804 -216 167 -28 313 -48 326 -45 33 8 43 43 60 208 16 160 12 192 -28
207 -12 5 -92 21 -177 35 -405 70 -480 98 -530 196 -9 19 -20 50 -23 68 -5 26
334 4370 383 4911 15 165 49 233 129 260 75 25 266 5 663 -69 111 -21 149 -17
162 17 8 19 36 275 36 322 0 23 -7 44 -17 54 -31 27 -739 143 -1324 216 -492
62 -753 87 -782 74 -21 -10 -49 -72 -175 -390 -509 -1280 -973 -2576 -1393
-3893 -61 -190 -113 -347 -115 -349 -2 -2 -4 2 -4 11 0 39 -439 1344 -670
1988 -329 920 -989 2608 -1043 2668 -24 26 -37 26 -292 6z"/>
<path d="M12350 18499 c-161 -31 -165 -33 -188 -87 -11 -26 -62 -163 -113
-305 -73 -199 -97 -257 -109 -253 -8 2 -65 27 -125 54 -326 148 -670 215 -989
192 -853 -61 -1625 -614 -2061 -1475 -294 -581 -453 -1386 -406 -2055 68 -969
394 -1750 971 -2331 414 -416 879 -638 1426 -679 409 -31 927 97 1284 317 456
282 798 732 983 1295 105 318 176 772 177 1126 0 90 -16 122 -62 122 -53 0
-271 -49 -286 -63 -12 -12 -18 -60 -28 -204 -36 -497 -122 -858 -281 -1178
-174 -348 -432 -616 -740 -770 -251 -125 -532 -185 -773 -164 -116 9 -165 20
-271 59 -163 59 -267 128 -423 279 -391 381 -672 1013 -850 1913 -165 832
-197 1502 -96 2000 48 233 167 517 304 723 144 216 345 395 559 500 212 103
384 145 596 145 155 0 226 -11 361 -56 499 -166 890 -639 1221 -1478 75 -190
78 -195 106 -202 12 -4 89 6 170 21 117 22 153 32 172 50 l24 23 -78 519
c-220 1483 -294 1945 -311 1964 -20 23 -40 22 -164 -2z"/>
<path d="M22709 17980 c-354 -33 -671 -182 -919 -430 -209 -211 -346 -468
-423 -795 -133 -567 -59 -1075 217 -1490 194 -290 521 -552 1221 -980 843
-515 1153 -800 1270 -1166 78 -247 47 -555 -83 -814 -68 -137 -142 -230 -257
-321 -327 -262 -733 -278 -1187 -47 -299 152 -568 419 -789 784 -250 414 -394
915 -428 1493 -8 132 -13 162 -28 177 -10 10 -69 29 -138 44 -173 39 -197 36
-209 -28 -12 -66 -286 -2318 -286 -2351 0 -19 7 -39 18 -48 17 -15 230 -68
274 -68 15 0 86 64 238 215 l216 216 34 -48 c320 -446 804 -785 1325 -928 197
-54 301 -69 485 -69 251 0 442 44 658 155 492 251 802 707 923 1354 26 141 36
389 20 521 -15 123 -64 325 -102 421 -73 183 -189 379 -319 537 -86 106 -289
299 -430 412 -255 203 -494 364 -910 614 -482 289 -708 450 -831 591 -164 187
-245 386 -256 624 -18 410 155 731 482 895 149 75 228 93 410 94 227 0 392
-41 630 -159 449 -223 791 -668 960 -1249 78 -269 116 -525 136 -910 9 -181
14 -224 28 -238 21 -23 257 -118 292 -118 37 0 55 21 68 77 5 27 118 515 250
1086 259 1117 250 1070 192 1097 -71 33 -273 110 -287 110 -17 0 -87 -56 -324
-261 l-135 -116 -49 70 c-146 208 -364 447 -526 577 -245 195 -506 327 -802
405 -221 58 -450 82 -629 65z"/>
</g>
</svg>
