<svg xmlns="http://www.w3.org/2000/svg" width="32" height="32" viewBox="0 0 32 32">
  <g id="ic-line-2" transform="translate(1973 -417)">
    <path id="Path_153" data-name="Path 153" d="M0,0H32V32H0Z" transform="translate(-1973 417)" fill="none"/>
    <path id="Path_154" data-name="Path 154" d="M2,29a10.667,10.667,0,0,1,21.333,0H20.667a8,8,0,0,0-16,0ZM12.667,17a8,8,0,1,1,8-8A8,8,0,0,1,12.667,17Zm0-2.667A5.333,5.333,0,1,0,7.333,9,5.332,5.332,0,0,0,12.667,14.333Zm11.045,4.937A10.669,10.669,0,0,1,30,29H27.333a8,8,0,0,0-4.717-7.3l1.095-2.431ZM22.795,4.217A7.336,7.336,0,0,1,20.667,18.3V15.62a4.667,4.667,0,0,0,1.388-8.812Z" transform="translate(-1972.333 417.333)" fill="#fff"/>
  </g>
</svg>
