<svg xmlns="http://www.w3.org/2000/svg" width="32" height="32" viewBox="0 0 32 32">
  <g id="ic-line-5" transform="translate(1876 -417)">
    <path id="Path_157" data-name="Path 157" d="M0,0H32V32H0Z" transform="translate(-1876 417)" fill="none"/>
    <path id="Path_158" data-name="Path 158" d="M27.667,16.989V26H29v2.667H2.333V26H3.667V16.989a6,6,0,0,1-1.823-8.06L5.46,2.667A1.333,1.333,0,0,1,6.615,2H24.72a1.333,1.333,0,0,1,1.155.667l3.6,6.243A6,6,0,0,1,27.667,16.989ZM25,17.963a6,6,0,0,1-5-1.813,6,6,0,0,1-8.667,0,6,6,0,0,1-5,1.812V26H25V17.964ZM7.385,4.667,4.141,10.284A3.333,3.333,0,0,0,10.1,13.239a1.333,1.333,0,0,1,2.475,0,3.333,3.333,0,0,0,6.192,0,1.333,1.333,0,0,1,2.475,0,3.333,3.333,0,1,0,5.943-2.976l-3.233-5.6H7.387Z" transform="translate(-1875.667 417.667)" fill="#fff"/>
  </g>
</svg>
