<svg xmlns="http://www.w3.org/2000/svg" width="32" height="32" viewBox="0 0 32 32">
  <g id="ic-line-3" transform="translate(1973 -527)">
    <path id="Path_155" data-name="Path 155" d="M0,0H32V32H0Z" transform="translate(-1973 527)" fill="none"/>
    <path id="Path_156" data-name="Path 156" d="M2,4.324A1.333,1.333,0,0,1,3.323,3H27.344a1.324,1.324,0,0,1,1.323,1.324V25.676A1.333,1.333,0,0,1,27.344,27H3.323A1.324,1.324,0,0,1,2,25.676ZM15.333,5.667V24.333H26V5.667Zm1.333,2.667h8V11h-8Zm0,4h8V15h-8Z" transform="translate(-1972.333 528)" fill="#fff"/>
  </g>
</svg>
