<svg xmlns="http://www.w3.org/2000/svg" width="32" height="32" viewBox="0 0 32 32">
  <g id="ic-line-1" transform="translate(1973 -307)">
    <path id="Path_147" data-name="Path 147" d="M0,0H32V32H0Z" transform="translate(-1973 307)" fill="none"/>
    <path id="Path_148" data-name="Path 148" d="M11.964,23.333h5.405a7.658,7.658,0,0,1,2.32-4.369c.151-.163,1.109-1.156,1.223-1.3a8,8,0,1,0-12.493,0c.115.143,1.076,1.137,1.224,1.3a7.66,7.66,0,0,1,2.321,4.371ZM17.333,26H12v1.333h5.333ZM6.339,19.333a10.667,10.667,0,1,1,16.653,0C22.165,20.365,20,22,20,24v3.333A2.667,2.667,0,0,1,17.333,30H12a2.667,2.667,0,0,1-2.667-2.667V24c0-2-2.167-3.635-2.995-4.667ZM16,12.672h3.333l-6,8V15.338H10l6-8.005v5.34Z" transform="translate(-1971.667 307.667)" fill="#fff"/>
  </g>
</svg>
