<svg xmlns="http://www.w3.org/2000/svg" width="32" height="32" viewBox="0 0 32 32">
  <g id="ic-line-4" transform="translate(1876 -307)">
    <path id="Path_151" data-name="Path 151" d="M0,0H32V32H0Z" transform="translate(-1876 307)" fill="none"/>
    <path id="Path_152" data-name="Path 152" d="M15.885,5.667H27.333A1.333,1.333,0,0,1,28.667,7V25.667A1.333,1.333,0,0,1,27.333,27h-24A1.333,1.333,0,0,1,2,25.667V4.333A1.333,1.333,0,0,1,3.333,3h9.885Zm-11.219,0V24.333H26v-16H14.781L12.115,5.667ZM10,11H20.667v6.539A3.558,3.558,0,0,1,19.084,20.5L15.333,23l-3.751-2.5A3.556,3.556,0,0,1,10,17.539Zm2.667,6.539a.888.888,0,0,0,.4.74l2.271,1.513L17.6,18.279a.889.889,0,0,0,.4-.74V13.667H12.667v3.872Z" transform="translate(-1875.333 308)" fill="#fff"/>
  </g>
</svg>
