<svg id="invoice-ic-3" xmlns="http://www.w3.org/2000/svg" width="96" height="96" viewBox="0 0 96 96">
  <rect id="Rectangle_17" data-name="Rectangle 17" width="96" height="96" fill="#cbdded" opacity="0"/>
  <g id="Group_22" data-name="Group 22" transform="translate(9.6 9.6)">
    <path id="Path_139" data-name="Path 139" d="M26.667,107.733h20.48v15.36H26.667Z" transform="translate(-20.267 -52.693)" fill="#cbdded"/>
    <path id="Path_140" data-name="Path 140" d="M92.8,33.92,87.68,28.8l-5.12,5.12L77.44,28.8l-5.133,4.992L67.2,28.8l-5.12,5.12L56.96,28.8l-5.12,5.12L48,28.928V42.88h2.56L67.2,59.52H96.64V28.928Z" transform="translate(-28.8 -21.12)" fill="#cbdded"/>
    <g id="Group_21" data-name="Group 21">
      <path id="Path_141" data-name="Path 141" d="M88.96,32.64H85.12V23.68a1.28,1.28,0,0,0-2.3-.768l-2.954,3.94-4.076-4.076a1.28,1.28,0,0,0-1.81,0L69.76,26.99l-4.215-4.215a1.28,1.28,0,0,0-1.792-.013L59.51,26.88,55.3,22.765a1.279,1.279,0,0,0-1.8.01L49.28,26.99l-4.215-4.215-6.4-6.4a1.28,1.28,0,0,0-.9-.375H19.84A3.84,3.84,0,0,0,16,19.84V88.96a3.84,3.84,0,0,0,3.84,3.84H88.96a3.84,3.84,0,0,0,3.84-3.84V36.48A3.84,3.84,0,0,0,88.96,32.64Zm0,2.56a1.28,1.28,0,0,1,1.28,1.28V53.12H85.12V35.2ZM48.375,29.705a1.281,1.281,0,0,0,1.81,0l4.224-4.224,4.2,4.107a1.279,1.279,0,0,0,1.786,0l4.229-4.116L68.851,29.7a1.281,1.281,0,0,0,1.81,0L74.88,25.49l4.215,4.215a1.3,1.3,0,0,0,1,.372,1.278,1.278,0,0,0,.933-.512L82.56,27.52v25.6H54.93L38.665,36.855a1.28,1.28,0,0,0-.9-.375H36.48V27.52l1.536,2.048a1.28,1.28,0,0,0,1.792.256,1.3,1.3,0,0,0,.137-.119L44.16,25.49ZM19.84,18.56H37.23l5.12,5.12-3.172,3.172-2.954-3.94a1.28,1.28,0,0,0-2.3.768v12.8H18.56V19.84A1.28,1.28,0,0,1,19.84,18.56Zm70.4,70.4a1.28,1.28,0,0,1-1.28,1.28H19.84a1.28,1.28,0,0,1-1.28-1.28V39.04H37.23L53.5,55.3a1.279,1.279,0,0,0,.9.375H90.24Z" transform="translate(-16 -16)" fill="#005baa"/>
      <path id="Path_142" data-name="Path 142" d="M46.293,105.6H25.813a1.28,1.28,0,0,0-1.28,1.28v15.36a1.28,1.28,0,0,0,1.28,1.28h20.48a1.28,1.28,0,0,0,1.28-1.28V106.88A1.28,1.28,0,0,0,46.293,105.6Zm-1.28,15.36H27.093v-12.8h17.92Z" transform="translate(-19.413 -51.84)" fill="#005baa"/>
      <path id="Path_143" data-name="Path 143" d="M33.067,114.133h2.56v2.56h-2.56Z" transform="translate(-22.827 -55.253)" fill="#005baa"/>
      <path id="Path_144" data-name="Path 144" d="M41.6,114.133h7.68v2.56H41.6Z" transform="translate(-26.24 -55.253)" fill="#005baa"/>
      <path id="Path_145" data-name="Path 145" d="M33.067,122.667h12.8v2.56h-12.8Z" transform="translate(-22.827 -58.667)" fill="#005baa"/>
      <path id="Path_146" data-name="Path 146" d="M88.533,56.533h-2.56a1.28,1.28,0,0,1-1.28-1.28h-2.56a3.84,3.84,0,0,0,3.84,3.84v2.56h2.56v-2.56a3.84,3.84,0,0,0,0-7.68h-2.56a1.28,1.28,0,1,1,0-2.56h2.56a1.28,1.28,0,0,1,1.28,1.28h2.56a3.84,3.84,0,0,0-3.84-3.84v-2.56h-2.56v2.56a3.84,3.84,0,0,0,0,7.68h2.56a1.28,1.28,0,0,1,0,2.56Z" transform="translate(-42.453 -27.093)" fill="#005baa"/>
    </g>
  </g>
</svg>
