<svg xmlns="http://www.w3.org/2000/svg" width="257.621" height="54" viewBox="0 0 257.621 54"><defs><style>.a{fill:#163792;}</style></defs><g transform="translate(-21.159 -27.572)"><path class="a" d="M95.962,52.972a5.529,5.529,0,0,0,.609-.126c.5-.237,1.017-.5,1.566-.787,1.076-.579,2.13-1.084,3.176-1.521a5.259,5.259,0,0,1,1.069-.282,1.878,1.878,0,0,1,.972.022.483.483,0,0,0,.178-.089h.045v-.045a2.217,2.217,0,0,1,.045-.26h.386V49.8h.134a4.2,4.2,0,0,0,0-.868,6.059,6.059,0,0,0-.134-.7c-.03-.171-.067-.386-.126-.646-.208-.119-.423-.252-.653-.393a4.466,4.466,0,0,0-.891-.564,1.045,1.045,0,0,0-.891-.045A14.267,14.267,0,0,0,98.79,47.8c-.549.319-1.069.594-1.566.824-.72.319-1.432.623-2.13.913-1.737.727-3.421,1.492-5.047,2.308-1.009.49-2.011.943-3,1.343q-1.959.835-3.785,1.833a2.446,2.446,0,0,1-.735.3,2.3,2.3,0,0,0-.831.341h-.215c.3-.416.742-.787,1.069-1.2l.282.03a8.505,8.505,0,0,1,.868.045,3.174,3.174,0,0,0,.653-.393l.349-.26a3.952,3.952,0,0,0,.282-1.039,1.667,1.667,0,0,0-.134-.987c.668-.72,1.195-1.492,1.937-2.189.289-.26.564-.52.824-.787a7.875,7.875,0,0,0,.564-.609,9.505,9.505,0,0,1,.98-.995,3.324,3.324,0,0,1,1.284-.7.939.939,0,0,1,.045-.3,1.5,1.5,0,0,0,.045-.371.8.8,0,0,0-.089-.371,1.888,1.888,0,0,0-.171-.631c-.089-.156-.178-.312-.26-.453a1.285,1.285,0,0,1-.223-.3l-.082-.045a1.72,1.72,0,0,1-.438-.215,3.617,3.617,0,0,0-2.219.735,8.924,8.924,0,0,0-1.521,1.566,9.72,9.72,0,0,1-.742.913c-.43.438-.9.883-1.388,1.351a19.241,19.241,0,0,0-1.685,1.8c-.735.126-1.6.289-2.731.542q-3.718.824-7.822,1.848c-2.746.683-4.765,1.225-6.071,1.633l-.067-.045-.059-.089a.164.164,0,0,0-.022-.1L64.873,54a.158.158,0,0,0-.134.022.631.631,0,0,0-.126.171.559.559,0,0,0-.134.223,2.672,2.672,0,0,1-1.046.126,1.523,1.523,0,0,0-.453-.022,1.062,1.062,0,0,0-.46.156v.082a.151.151,0,0,1,.045.111.09.09,0,0,1-.045.089l-.082-.022a1.669,1.669,0,0,0-.549.126q-.323.134-.668.267a4.4,4.4,0,0,0-.609.26.945.945,0,0,1-.371.022c-.163-.015-.3-.022-.416-.022-.111-.03-.186-.03-.215,0a5.286,5.286,0,0,1-1.915.69c-.46.119-.943.267-1.432.438-.579.23-1.18.49-1.789.787-.319.171-.579.3-.779.386a1.939,1.939,0,0,1-.7.134,2.355,2.355,0,0,0-.7.215h-.126a7.127,7.127,0,0,1-.134-.779,8.011,8.011,0,0,0-.779-2.783,11.793,11.793,0,0,0-3.785-3.659,48.629,48.629,0,0,0-4.78-2.739c-.468-.23-.957-.445-1.484-.653a7.04,7.04,0,0,1-3.132-1.907c-.111-.178-.059-.416.156-.72a9.922,9.922,0,0,1,.675-.846,3.1,3.1,0,0,0,.3-.349,23.14,23.14,0,0,1,4.475-5,48.737,48.737,0,0,1,5-3.607,24.713,24.713,0,0,1,6.635-2.984,12.018,12.018,0,0,1,7.192.156,25.135,25.135,0,0,1,4.527,2.085,2.3,2.3,0,0,1-.327.957,3.7,3.7,0,0,1-.586.653,3.264,3.264,0,0,0-.527.564,9.81,9.81,0,0,1-3.822,3.043,12.105,12.105,0,0,1-1.655.564,6.212,6.212,0,0,0-2.434,1,2.525,2.525,0,0,0-.653,1.959,5.225,5.225,0,0,0,.868,1.87,9.29,9.29,0,0,0,2.7-.787l.52-.26c.438-.141.853-.26,1.262-.349a7.435,7.435,0,0,0,1.306-.386,8.677,8.677,0,0,0,2.694-1.87,21.406,21.406,0,0,0,2.041-2.479,7.436,7.436,0,0,0,1.284-3.154,5.644,5.644,0,0,0-.631-3.674,9.016,9.016,0,0,0-7.154-4.483A20.716,20.716,0,0,0,52.345,29.4a41.993,41.993,0,0,0-9.388,5.44,31.01,31.01,0,0,0-6.568,6.524l-.349.52a7.292,7.292,0,0,0-1.046,1.655,4.414,4.414,0,0,0-.171,2.694,5.93,5.93,0,0,0,1.084,2.175,4.813,4.813,0,0,0,1.529,1.106c.661.334,1.343.646,2.041.935.438.178.824.349,1.173.527a38.8,38.8,0,0,1,4.742,2.65.672.672,0,0,0,.171.134,20.98,20.98,0,0,1,1.937,1.41,5.8,5.8,0,0,1,1.655,2.041,2.058,2.058,0,0,1-.46,2.33,1.817,1.817,0,0,1-.564.282,5.417,5.417,0,0,1-.564.111,4.446,4.446,0,0,0-1.046.26,1.25,1.25,0,0,0-.52.43.986.986,0,0,1-.349.3,1.888,1.888,0,0,1-.868.223,2.376,2.376,0,0,0-.831.171,11.488,11.488,0,0,1-1.343.653A23.9,23.9,0,0,0,40.255,63.1c-.809.5-1.6.987-2.39,1.484Q31.954,68.1,26.3,71.845q-4.486,3.084-5.024,5.24a2.7,2.7,0,0,0,1.41,3.288,10.435,10.435,0,0,0,5,1.195,14.579,14.579,0,0,0,5.781-1.024A14.607,14.607,0,0,0,37.3,77.8a19.635,19.635,0,0,1,1.915-1.61,38.638,38.638,0,0,0,8.09-7.7,5.651,5.651,0,0,1,.957-.913,10.942,10.942,0,0,0,.95-1c.148-.2.3-.423.482-.653.349-.43.668-.854.957-1.262a7.233,7.233,0,0,0,.52-1.217,3.607,3.607,0,0,1,.742-1.477,7.43,7.43,0,0,1,2.256-1.084c.987-.319,1.989-.609,3.006-.876.839-.2,1.566-.4,2.175-.609q5.21-1.6,10.91-2.828c1.885-.4,3.755-.824,5.611-1.254l1.136-.089c.126-.015.275-.015.408-.022-.148.156-.327.3-.453.453-.208.289-.393.586-.564.876a7.254,7.254,0,0,1-.7,1.039,2.822,2.822,0,0,0,.393,1.284,5.372,5.372,0,0,0,.69.846,6.749,6.749,0,0,1,.7.831,7.859,7.859,0,0,0,3.5-.416,17.113,17.113,0,0,0,2.932-1.455c.5-.289,1-.564,1.521-.831Q88.31,56.4,91.227,55.1c1.418-.668,2.82-1.328,4.215-2A3.341,3.341,0,0,0,95.962,52.972ZM36.129,42.144l-.089.089v.26h-.134A2.152,2.152,0,0,1,36,42.211l.089-.193.089-.178a.278.278,0,0,1,.022.178Zm.43-.72-.022.045-.037.067q-.022.045-.111.045a.586.586,0,0,0,.134-.215h.037Zm.267-.386-.022.045-.067.059-.089.089.045-.089.089-.171h.045Zm6.13,26.243c-.26.349-.527.668-.787.957-.289.23-.594.445-.913.653v.52c-.03-.119-.134-.119-.327,0a8.056,8.056,0,0,0-.653.475c-.245.208-.468.408-.668.609-.237.208-.408.349-.527.438a30.93,30.93,0,0,0-2.694,2.39,20.378,20.378,0,0,1-4.349,3.392,16.165,16.165,0,0,1-1.915.809,14.7,14.7,0,0,1-2.805.735A3.354,3.354,0,0,1,25,77.976h-.134a5.368,5.368,0,0,1,1.766-1.952c.883-.668,1.729-1.247,2.538-1.744.319-.2.594-.379.831-.52.75-.52,1.521-1.046,2.3-1.566q3.306-2.26,6.657-4.349a3.675,3.675,0,0,1,.868-.3,2.758,2.758,0,0,0,.824-.3c.26-.171.549-.364.868-.564.787-.5,1.551-.957,2.308-1.4.171-.052.319-.1.43-.126l.245-.089a1.646,1.646,0,0,0,.237-.134.181.181,0,0,1,.134.045h.037l.045.045.045.045A9.522,9.522,0,0,0,42.957,67.281Z" transform="translate(0 0)"/><path class="a" d="M31,34.764a.553.553,0,0,1,.237.156,1.056,1.056,0,0,1,.2.282,9.64,9.64,0,0,0,3.3-.824,11.54,11.54,0,0,1,1.173-.438,13.557,13.557,0,0,1,2.961-.609,21.256,21.256,0,0,0,2.434-.438h.045c.46-.111,1.009-.23,1.648-.341a3.224,3.224,0,0,1,1.4-.045,1.167,1.167,0,0,0,.453-.223,1.388,1.388,0,0,0,.282-.3c.119-.111.252-.23.393-.349A3.745,3.745,0,0,0,45,30.2a1.984,1.984,0,0,0-1.781-1.239,9.286,9.286,0,0,0-2.783.111c-.957.171-1.7.334-2.219.475-.787.23-1.6.453-2.434.653A38.192,38.192,0,0,0,30.3,31.855a3.8,3.8,0,0,0,.349,2.56A1.717,1.717,0,0,0,31,34.764Z" transform="translate(58.224 8.552)"/><path class="a" d="M141.488,39.716a4.409,4.409,0,0,1,1.692-.327c.787-.045,1.61-.067,2.479-.067a15.42,15.42,0,0,0,2.872-.134,19.469,19.469,0,0,1,2.13-.171,15.745,15.745,0,0,0,2.264-.215,1.156,1.156,0,0,1,.453,0,1.891,1.891,0,0,1,.327.082,1.354,1.354,0,0,0,.609.045,24.4,24.4,0,0,1,3.332-.237,17.535,17.535,0,0,1,3.325.237h2.3a8.6,8.6,0,0,0,1,.045c.468.03.987.059,1.566.089s1.106.067,1.566.126a5.433,5.433,0,0,0,.609-1.521,1.919,1.919,0,0,1-.3-.7,2.269,2.269,0,0,0-.3-.735,3.427,3.427,0,0,0-.475-.393,1.559,1.559,0,0,1-.571-.475q-1.169-.045-2.739-.089c-1.128-.059-2.227-.1-3.28-.134a13.8,13.8,0,0,0-2.412.089,15.3,15.3,0,0,1-2.353.089,9.175,9.175,0,0,0-2.041.045,2.685,2.685,0,0,1-.586.045h-.891c-.319.022-.594.037-.831.037a1.7,1.7,0,0,0-.475.045,8.482,8.482,0,0,1-2.13,0c-.549-.03-1.076-.037-1.566-.022a2.436,2.436,0,0,0-1.173.282h-1.44v-.126a5.341,5.341,0,0,0,1.306-1.306,23.054,23.054,0,0,0,1.566-2.241,13.772,13.772,0,0,0,1-1.848,3.861,3.861,0,0,1-.609-.868,3.574,3.574,0,0,0-.653-.913,2.078,2.078,0,0,0-1.173-.52.547.547,0,0,1-.223.126.831.831,0,0,0-.171.134,1.2,1.2,0,0,0-.46.43c-.126.208-.252.408-.364.609a2.256,2.256,0,0,1-.349.616c-.557.75-1.136,1.492-1.744,2.212-.579.7-1.143,1.41-1.692,2.13a4.207,4.207,0,0,1-.609.653,3.174,3.174,0,0,0-.957,1.306c-1.128.178-2.39.319-3.785.438a45.407,45.407,0,0,0-5.692.824,10.73,10.73,0,0,1-1.959.26,5.543,5.543,0,0,0-2.917.653.618.618,0,0,0-.282.156l-.193.193a1.225,1.225,0,0,1-.26.26,3,3,0,0,0,.237,1.4,2.614,2.614,0,0,0,.586.735,2.706,2.706,0,0,1,.564.564,15.273,15.273,0,0,0,4.394-.69l.609-.178a10.958,10.958,0,0,1,2.264-.215,6.06,6.06,0,0,0,2.865-.438h.393v.134a7.2,7.2,0,0,0-1.566,1.67c-.549.772-1.069,1.544-1.566,2.33a17.067,17.067,0,0,1-1,1.477c-.943,1.351-1.952,2.657-3,3.933a2.385,2.385,0,0,0-.52-.631,6.406,6.406,0,0,1-.52-.564,17.359,17.359,0,0,0-4.876.393q-2.694.568-4.735,1.128a8.748,8.748,0,0,1-1.566.223,5.024,5.024,0,0,0-2.264.564h-.519a3.632,3.632,0,0,1,1.15-1.091,19.6,19.6,0,0,1,1.893-1.128,17.139,17.139,0,0,1,1.566-.742,2,2,0,0,1,.519-1.039,1.959,1.959,0,0,1-.26-.609,3.374,3.374,0,0,0-.393-.787,1.04,1.04,0,0,0-.349-.215,4.986,4.986,0,0,0-.475-.171,2.291,2.291,0,0,1-.482-.134.807.807,0,0,1-.341-.26.835.835,0,0,1-.134-.438,2.391,2.391,0,0,0-.134-.43,2.47,2.47,0,0,0-1.625-1.195,9.228,9.228,0,0,0-2.59-.245c-1.069.319-2.145.623-3.221.913-1.447.579-2.939,1.106-4.475,1.566a39.873,39.873,0,0,0-5,1.789c-.527.245-1.024.594-1.536.883-.045-.1-.03-.186-.1-.275a11.889,11.889,0,0,0-.757-1.046c-.119-.148-.215-.275-.3-.393a12.327,12.327,0,0,0-5.522.846Q88.13,47.716,85.781,48.8a8.831,8.831,0,0,1-.868.349,11.855,11.855,0,0,1-1.44.52,8.027,8.027,0,0,0-2.39,1.046h-.26v-.134a2.162,2.162,0,0,0,.7-.646,1.593,1.593,0,0,1,.3-.393c.319-.319.668-.683,1.039-1.091a18.125,18.125,0,0,1,2.442-2.345q-.045-.479-.089-.913,0-.434-.045-.913a5.109,5.109,0,0,1-.7-.653c-.23-.26-.43-.5-.609-.742a17.711,17.711,0,0,0-4.215.416,8.475,8.475,0,0,0-3.83,1.633h-.26V44.8a3.586,3.586,0,0,0,.653-.52,3.429,3.429,0,0,1,1.262-.868c-.289-.816-.579-1.536-.868-2.175l-.045-.045a4.216,4.216,0,0,0-1.262-.349,3.062,3.062,0,0,1-.868.52,2.9,2.9,0,0,0-.653.349,23.321,23.321,0,0,0-3.874,3.481c-.289.378-.609.779-.957,1.217-.534.7-1.106,1.173-1.662,1.781l-.378-.126a1.728,1.728,0,0,0-.631.059c-.364.074-.75.171-1.15.282l-.913.267a30.271,30.271,0,0,1-4.045,1.262c-.868.2-1.7.43-2.479.69-.26.059-.512.1-.742.134a6.768,6.768,0,0,0-.675.126,1.73,1.73,0,0,0-.631.349h-.52v-.126a4.336,4.336,0,0,0,.72-.527c.393-.319.846-.683,1.366-1.106s.994-.8,1.418-1.15a5.073,5.073,0,0,0,.712-.653.76.76,0,0,0,.134-.393c.03-.119.059-.245.089-.393a.908.908,0,0,1,.171-.386,2.176,2.176,0,0,0-.371-1,6.669,6.669,0,0,0-.712-.824c-.148-.148-.289-.3-.438-.482a2.458,2.458,0,0,0-.757.193,2.976,2.976,0,0,0-.594.371,2.867,2.867,0,0,1-.609.393,2.327,2.327,0,0,1-.868.215A2.61,2.61,0,0,0,52.517,43.3a13.183,13.183,0,0,0-4.178.764,21.436,21.436,0,0,0-4.676,2.256q-2.149,1.392-4.067,2.872l-.349.26a1.5,1.5,0,0,0-.3.215c-.52.379-1.039.8-1.566,1.262a3.719,3.719,0,0,0-1.084,1.611,2.946,2.946,0,0,0,.089,2,4.359,4.359,0,0,0,.824,1.3,3.131,3.131,0,0,0,3.065,1A13.34,13.34,0,0,0,43.6,55.761c.148-.059.275-.119.393-.178a3.553,3.553,0,0,1,.653-.171,2.935,2.935,0,0,0,.868-.3h.134a4.188,4.188,0,0,1-1.195.824c-.571.289-1.158.579-1.766.868a14.273,14.273,0,0,0-1.781.876q-1.826,1.08-4.134,2.761a18.339,18.339,0,0,0-3.562,3.236,17.668,17.668,0,0,0-1.373,2.13,9.119,9.119,0,0,0-.935,2.479,2.136,2.136,0,0,0,.067.527,3.963,3.963,0,0,0,.156.475,2.357,2.357,0,0,1,.171.453.6.6,0,0,1,0,.327,1.992,1.992,0,0,0,.237.876,1.972,1.972,0,0,0,.5.52l.045.045a2.642,2.642,0,0,0,2.516.282,7.976,7.976,0,0,0,2.219-1.195l.045-.045L36.9,70.5a.256.256,0,0,1-.089-.171,3.5,3.5,0,0,0,.98-.5c.482-.3.957-.631,1.44-.98a9.627,9.627,0,0,0,1.017-.824c.23-.23.468-.475.7-.742a5.636,5.636,0,0,1,.868-.913,2.12,2.12,0,0,0,.215.089.182.182,0,0,1,.134.045,6.4,6.4,0,0,0,.134-.653.375.375,0,0,1,.215-.171l.26-.089a.583.583,0,0,0,.3-.134,2.219,2.219,0,0,0,.482-.735,2.927,2.927,0,0,1,.43-.653,7.664,7.664,0,0,1,.868-.824c.319-.267.623-.542.913-.831a12.819,12.819,0,0,0,1.18-1.648,12.156,12.156,0,0,1,.994-1.44h.089a.948.948,0,0,0,.3.134,1.531,1.531,0,0,0,.371-.438,3.9,3.9,0,0,0,.282-.609,2.3,2.3,0,0,1,.609-1A6.675,6.675,0,0,1,51.82,56.5a11.919,11.919,0,0,0,1.781-.653,35.825,35.825,0,0,1,6.041-2.189c.378-.1.772-.186,1.15-.282-.631.43-1.284.839-1.885,1.3a9.23,9.23,0,0,0,.631,1.455c.215.393.468.809.757,1.239.178-.022.289-.037.349-.037h.089l.067.022.067.059.082.089a4.422,4.422,0,0,0,1.915-.8c.638-.453,1.247-.92,1.826-1.418.468-.4.883-.735,1.262-1a92.393,92.393,0,0,1,8.223-4.735,10.575,10.575,0,0,1,1.648-.7,8.2,8.2,0,0,0,2.694-1.351h.134a12.152,12.152,0,0,1-1.826,2.093,17.532,17.532,0,0,0-1.4,1.477l-.609.868a12.545,12.545,0,0,1-1.432,1.826,3.994,3.994,0,0,0,.52,2.308,2.085,2.085,0,0,0,2.375.8,15.147,15.147,0,0,0,1.848-.631c.638-.26,1.173-.5,1.61-.735a2.047,2.047,0,0,1,.43-.178q5.867-2.65,12.179-5c.341-.111.883-.2,1.336-.3a9.7,9.7,0,0,0-2.471,1.744,2.078,2.078,0,0,0-.43.846,6.039,6.039,0,0,0-.178.935,1.175,1.175,0,0,1-.171.653,4.441,4.441,0,0,0,3.176,2.39,9.387,9.387,0,0,0,4.149-.349,36.475,36.475,0,0,0,4.112-1.477c.26-.119.5-.215.742-.3a11.4,11.4,0,0,1,1.6-.438,6.062,6.062,0,0,0,2.479-.957h.393c-.141.089-.171.237-.089.438a4.213,4.213,0,0,0,.393.675c.178.245.319.438.438.586a1.591,1.591,0,0,0,.171.215,12.781,12.781,0,0,0,3.651-.067,27.45,27.45,0,0,0,3.266-.8.163.163,0,0,0,.126-.045,23.464,23.464,0,0,1,3.614-.653A25.613,25.613,0,0,0,122.1,52.8c.289-.082.846-.215,1.67-.386s1.648-.319,2.457-.438a3.105,3.105,0,0,1,.98.022c-.661.861-1.336,1.7-1.982,2.583a3.853,3.853,0,0,1-.386.571,11.256,11.256,0,0,0-1.4,2.234,6.456,6.456,0,0,0-.52,2.939,1.719,1.719,0,0,1,.43.7,3.967,3.967,0,0,0,.349.609,1.692,1.692,0,0,0,.349.26.806.806,0,0,1,.237.126.786.786,0,0,1,.2.267,7.469,7.469,0,0,0,3.325-.935,25.969,25.969,0,0,0,2.939-1.811.526.526,0,0,1,.126-.082.905.905,0,0,0,.26-.3,2.428,2.428,0,0,1,.2-.178,1.179,1.179,0,0,1,.327-.171v-.178a1.4,1.4,0,0,1,.059-.43,1.814,1.814,0,0,1,.282-.438,6.372,6.372,0,0,1-1.128-1.477l-.26-.438h-.349a4.682,4.682,0,0,0-.631-.022.856.856,0,0,0-.542.289h-.134a6.837,6.837,0,0,1,1.744-2.479,15.788,15.788,0,0,0,1.084-1.217q1.3-1.837,2.739-3.659c1.187-1.477,2.368-3.043,3.525-4.69.141-.237.334-.527.564-.876.408-.668.876-1.358,1.418-2.085A4.232,4.232,0,0,1,141.488,39.716ZM37.726,65.194a17.336,17.336,0,0,0-2.085,1.7h-.26V66.76a4.392,4.392,0,0,0,1.306-1.217,4.52,4.52,0,0,1,.868-.957c.319-.23.668-.46,1.046-.7a8.143,8.143,0,0,0,2.041-1.6h.134A10.862,10.862,0,0,1,37.726,65.194ZM52.554,47.761a5.566,5.566,0,0,1-.779.475,5.809,5.809,0,0,0-.609.3,1.448,1.448,0,0,0-.393.349,1.813,1.813,0,0,1-.52.438H49.86l-.067.082V49.5l.045.111.022.1-.089-.045-.52-.082a9.135,9.135,0,0,0-1.566.735c-.378.208-.712.378-1,.527a10.512,10.512,0,0,1-1.87.564,7.058,7.058,0,0,0-2.65,1h-.349V52.28a11.467,11.467,0,0,0,2.523-1.7,12.693,12.693,0,0,1,2.085-1.521,33,33,0,0,1,4.223-1.781,2.379,2.379,0,0,1,.779-.126,2.625,2.625,0,0,0,1-.267h.52v.134h.134A1.579,1.579,0,0,1,52.554,47.761Zm59.492-.527c-.408.178-.742.319-1,.438a56.732,56.732,0,0,1-6.561,2.694q-2.226.746-4.438,1.655a11.021,11.021,0,0,1-2.13.475c-.549.089-1.076.193-1.566.3a2.865,2.865,0,0,0-1.173.527h-.134a11.172,11.172,0,0,1,3.347-2.442c1.625-.868,3.013-1.551,4.178-2.041a2.011,2.011,0,0,1,.3-.134,4.22,4.22,0,0,1,1.039-.3,3.588,3.588,0,0,0,1.262-.475l.134-.089.045-.045a.764.764,0,0,1-.045-.26.446.446,0,0,1,.148.022l.111.022.045.022-.045.067h-.134V47.8a16.3,16.3,0,0,0,3.132-.913c.5-.171.987-.334,1.484-.475a8.524,8.524,0,0,1,1.559-.3,5.419,5.419,0,0,0,2.264-.609h1.046a2.911,2.911,0,0,1-1.158.913Q112.915,46.844,112.046,47.234Z" transform="translate(62.541 2.302)"/><path class="a" d="M101.549,34.023h.134a2.017,2.017,0,0,1,.215-.482,2.42,2.42,0,0,1,.111-.327.8.8,0,0,0,.059-.193,3.668,3.668,0,0,0-.631-1.655,2.406,2.406,0,0,0-1.15-1.039,1.6,1.6,0,0,0-.913-.134,1.993,1.993,0,0,1-.868.327,4.485,4.485,0,0,1-1,.022,3.467,3.467,0,0,0-1.566.26,6.654,6.654,0,0,1-1.306.52c-.49.148-.98.282-1.477.393a4.318,4.318,0,0,0-.7.134.219.219,0,0,1-.193,0l-.193-.089L92,31.714h-.067a4.32,4.32,0,0,1-1.128.542,11.138,11.138,0,0,1-1.306.371.633.633,0,0,1-.171-.022.871.871,0,0,1-.178-.067.212.212,0,0,0-.126-.037,1.962,1.962,0,0,0-.571.3,4.747,4.747,0,0,1-.475.349,2.28,2.28,0,0,0-1.351.171,15.047,15.047,0,0,0-1.388.653l-.349.171v-.126h-.134v-.134a1.932,1.932,0,0,0,.609-.3,3.2,3.2,0,0,0,.349-.193,1.228,1.228,0,0,1,.482-.156.176.176,0,0,1-.111-.022l-.067-.045a.309.309,0,0,0-.126-.015h-.089l.045-.089h.089a.153.153,0,0,1,.126-.045,3.4,3.4,0,0,0-.193-.98,3.937,3.937,0,0,0-.371-.675c-.119-.171-.23-.364-.349-.564l-.416-.089a1.506,1.506,0,0,1-.364-.126,2.993,2.993,0,0,0-1.351.564,8.01,8.01,0,0,0-1.046.957l-.653.653c-.638.527-1.128,1.21-1.737,1.766a11.752,11.752,0,0,0-3.525.6c-1.536.5-2.984,1.054-4.342,1.633-.616.26-1.165.49-1.655.7-.408.141-.816.275-1.217.386a6.616,6.616,0,0,0-2.13.876h-.134a8.314,8.314,0,0,1,2.479-2.093c.438-.289.854-.579,1.262-.868a2.648,2.648,0,0,1,.742-.349,2.2,2.2,0,0,0,.913-.52,1.111,1.111,0,0,0,.126-.349.915.915,0,0,1,.26-.438,3.308,3.308,0,0,0-.69-1.5,2.741,2.741,0,0,0-1.217-.935,3.205,3.205,0,0,0-1.328.393q-.98.434-2,1l-1.41.779q-2.783,1.7-5.611,3.347c-1.737,1.017-3.466,2.048-5.173,3.087a8.1,8.1,0,0,1-1.655.653,5.109,5.109,0,0,0-2.041,1h-.393a5.359,5.359,0,0,1,1.262-1.262c.26-.2.52-.416.779-.653.408-.43.831-.853,1.262-1.262a43.5,43.5,0,0,1,3.481-3.347,12.976,12.976,0,0,1,1.959-1.388,18.553,18.553,0,0,0,1.87-1.306,3.073,3.073,0,0,0,.126-1.306,7.689,7.689,0,0,1-1.262-1.655.375.375,0,0,1-.171-.037,1.547,1.547,0,0,0-.3-.067,3.556,3.556,0,0,0-.438-.022,2.739,2.739,0,0,1-.824.52,4.168,4.168,0,0,0-.7.393c-.549.408-1.1.824-1.648,1.262L54.933,32.85a4.383,4.383,0,0,0-.787.824,5,5,0,0,1-.735.824,39.712,39.712,0,0,0-4.438,4.045l-.564.564c-.26.237-.52.482-.787.742-.341.319-.675.623-.994.913a3.706,3.706,0,0,0-.482.779,9.4,9.4,0,0,1-.564.913,3.212,3.212,0,0,0,.111.98,2.826,2.826,0,0,0,.282.631,3.594,3.594,0,0,1,.26.438q1.213,2.26,3.221,1.87A13.616,13.616,0,0,0,53.412,44.9a4.787,4.787,0,0,1,1.128-.482,4.486,4.486,0,0,0,1.781-.957,1.5,1.5,0,0,1,.393.913,7.426,7.426,0,0,0,.26.787,1.605,1.605,0,0,0,.564.475,3.1,3.1,0,0,1,.482.393,7.285,7.285,0,0,0,3.021-.438,19.018,19.018,0,0,0,2.672-1.262c.638-.341,1.306-.675,2-.994q4.342-1.881,8.728-3.555a7.918,7.918,0,0,1-.816.853,4.435,4.435,0,0,0-1.388,1.744,2.344,2.344,0,0,0-.022,1.737,7.577,7.577,0,0,0,.72,1.432l.171.267a8.618,8.618,0,0,0,1.566.126,43.391,43.391,0,0,1,11.741-8.216,37.54,37.54,0,0,1,15.133-3.57Z" transform="translate(156.836 13.212)"/><path class="a" d="M79.092,37.963a3.748,3.748,0,0,0-.957-1.084c-.141-.119-.3-.245-.475-.393a1.583,1.583,0,0,0-.787.156,3.154,3.154,0,0,0-.475.327,2.211,2.211,0,0,1-.564.386,21.637,21.637,0,0,1-2.961,1.262l-.082.045a51,51,0,0,1-11.786,2.434q-.479.045-1.135.134c-.75.111-1.521.208-2.3.282a3.282,3.282,0,0,1-1.7-.156h-.653a5.134,5.134,0,0,1,1.4-1.432,6.243,6.243,0,0,0,1.173-1.128,2.119,2.119,0,0,1,.609.082c.178.059.334.119.482.178a2.972,2.972,0,0,0,.564.215,5.985,5.985,0,0,0,2.278.089,18.262,18.262,0,0,0,2.026-.393.7.7,0,0,1,.171-.045c1.076-.23,2.108-.416,3.087-.564a26.316,26.316,0,0,0,3.11-.586,7.517,7.517,0,0,0,2.679-1.284,2.769,2.769,0,0,1,.52-.349,1.76,1.76,0,0,0,.742-.564,4.127,4.127,0,0,0,.519-2.872A4.659,4.659,0,0,0,73.4,30.185a1.454,1.454,0,0,0-.675-.3,7.736,7.736,0,0,0-.846-.134c-.148-.03-.282-.059-.393-.089a3.3,3.3,0,0,1-1.826.3,6.727,6.727,0,0,0-1.744.223,12.248,12.248,0,0,1-1.343.386,12.914,12.914,0,0,0-2.13.653,52.135,52.135,0,0,0-7.785,4.483c-.289.171-.564.349-.831.52a13.96,13.96,0,0,0-2.175,1.588,4.084,4.084,0,0,0-1.366,4,4.159,4.159,0,0,0,.542,1.588c.7.809,2.212,1.262,4.542,1.343a45.117,45.117,0,0,0,7.221-.327A30.646,30.646,0,0,0,70.008,43.4a2.357,2.357,0,0,0,.609-.26,1.106,1.106,0,0,1,.26-.045h.067l.022-.022V43.01A.3.3,0,0,1,71,42.876a1.725,1.725,0,0,0,.571.067,1.819,1.819,0,0,0,.43-.1,2.132,2.132,0,0,1,.653-.223,5.181,5.181,0,0,0,.631-.215c.393-.148.831-.327,1.328-.542s.943-.4,1.343-.542a2.943,2.943,0,0,1,.527-.223,2.57,2.57,0,0,1,.609-.171,1.016,1.016,0,0,0,.408-.067.276.276,0,0,0,.156-.282c.379-.03.735-.074,1.084-.134h.178a.952.952,0,0,0,.26-.26l.26-.26A4.171,4.171,0,0,0,79.092,37.963ZM64.308,34.92c.52-.171,1.061-.364,1.61-.564.779-.26,1.581-.534,2.39-.824a5.434,5.434,0,0,1,1-.178,3.068,3.068,0,0,0,1.306-.349.7.7,0,0,0,.238.045.738.738,0,0,0,.237-.045h.393v.134a11.18,11.18,0,0,1-3.874,1.477,1.45,1.45,0,0,0-.349.045,4.291,4.291,0,0,1-1.084.134,2.582,2.582,0,0,0-1.351.26h-.52Z" transform="translate(199.339 13.399)"/></g></svg>